<svg width="456" height="111" fill="none" xmlns="http://www.w3.org/2000/svg"><g clip-path="url(#a)"><path d="M141.15 25.9a1.23 1.23 0 0 1-1.12-.58l-8.68-14.09V24.8a1.11 1.11 0 0 1-1.1 1.1 1.079 1.079 0 0 1-1.07-1.1V7.47a1.08 1.08 0 0 1 .336-.8 1.093 1.093 0 0 1 .814-.3 1.188 1.188 0 0 1 1.15.66l8.65 14V7.47a1.106 1.106 0 0 1 1.1-1.1 1.079 1.079 0 0 1 1.07 1.1V24.8a1.092 1.092 0 0 1-1.15 1.1Zm14.38-.08a1.94 1.94 0 0 1-1.18-.39 2.281 2.281 0 0 1-.68-.94 4.934 4.934 0 0 1-3.66 1.33c-3.21 0-4.57-1.7-4.57-3.87v-.18c0-2.17 1.49-3.79 4.83-3.79h3v-.66c0-2.06-.5-3.11-2.7-3.11a4.997 4.997 0 0 0-2 .34 3.592 3.592 0 0 1-1.23.45.92.92 0 0 1-.94-.92c0-.55.53-1 1.26-1.25a8.349 8.349 0 0 1 3.08-.52c3.71 0 4.81 1.8 4.81 5.22v4.89c0 1 .24 1.36.73 1.62a.888.888 0 0 1 .45.79c-.05.68-.52.99-1.2.99Zm-2.3-6.06h-2.75c-2.19 0-2.77 1-2.77 2v.19c0 1.12.63 2.06 2.69 2.06a2.502 2.502 0 0 0 2.83-2.74v-1.51Zm12.28 5.86h-.75c-3.61 0-4.55-2.25-4.55-5.67v-5.53h-.76a1 1 0 1 1 0-2h.76V9.77a1.14 1.14 0 1 1 2.28 0v2.69h2.43a1 1 0 0 1 0 2h-2.46V20c0 2.62.42 3.61 2.48 3.61h.55a1.046 1.046 0 0 1 0 2.09l.02-.08Zm4.81-16a1.374 1.374 0 0 1-.995-.393 1.367 1.367 0 0 1-.415-.987 1.424 1.424 0 0 1 .372-1.088 1.433 1.433 0 0 1 1.628-.34 1.43 1.43 0 0 1 .85 1.429 1.396 1.396 0 0 1-.428.993 1.396 1.396 0 0 1-1.012.386Zm0 16.21a1.13 1.13 0 0 1-1.12-1.15V13.46a1.13 1.13 0 0 1 .317-.812 1.125 1.125 0 0 1 .803-.338 1.145 1.145 0 0 1 .816.334 1.137 1.137 0 0 1 .334.816v11.21a1.152 1.152 0 0 1-.334.816 1.14 1.14 0 0 1-.816.334v.01Zm10.2-.01c-3.71 0-5.26-2.43-5.26-5.41v-2.69c0-3 1.55-5.41 5.26-5.41s5.24 2.43 5.24 5.41v2.69c0 2.98-1.5 5.41-5.24 5.41Zm3-8.08c0-2-.86-3.32-3-3.32s-3 1.28-3 3.32v2.67c0 2 .87 3.32 3 3.32s3-1.28 3-3.32v-2.67Zm15.5 8.08a1.148 1.148 0 0 1-1.15-1.15V17.3c0-1.65-.44-2.83-2.45-2.83a3.601 3.601 0 0 0-3.19 1.65v8.55a1.135 1.135 0 0 1-.324.812 1.132 1.132 0 0 1-.806.338 1.148 1.148 0 0 1-1.15-1.15v-8.81c0-1-.31-1.36-.81-1.65a.81.81 0 0 1-.44-.75c0-.68.47-1 1.12-1 .519.03 1.016.223 1.42.55.255.238.45.533.57.86a5.31 5.31 0 0 1 4.1-1.56c3.3 0 4.26 2 4.26 4.78v7.58a1.148 1.148 0 0 1-1.15 1.15Zm14.07 0a1.94 1.94 0 0 1-1.18-.39 2.281 2.281 0 0 1-.68-.94 4.929 4.929 0 0 1-3.66 1.33c-3.21 0-4.57-1.7-4.57-3.87v-.18c0-2.17 1.49-3.79 4.83-3.79h3v-.66c0-2.06-.5-3.11-2.69-3.11a4.997 4.997 0 0 0-2 .34 3.592 3.592 0 0 1-1.23.45.92.92 0 0 1-.94-.92c0-.55.53-1 1.26-1.25a8.349 8.349 0 0 1 3.08-.52c3.71 0 4.81 1.8 4.81 5.22v4.89c0 1 .24 1.36.73 1.62a.888.888 0 0 1 .45.79c-.06.68-.54.99-1.21.99Zm-2.33-6.06h-2.75c-2.19 0-2.77 1-2.77 2v.19c0 1.12.63 2.06 2.7 2.06a2.504 2.504 0 0 0 2.063-.676 2.5 2.5 0 0 0 .757-2.034v-1.54Zm9.13 6.06a2.46 2.46 0 0 1-1.39-.55 3.194 3.194 0 0 1-1-2.46V7.89a1.149 1.149 0 0 1 1.963-.813c.216.215.337.508.337.813v14.53c0 1.07.29 1.36.81 1.62a.888.888 0 0 1 .45.79c-.02.68-.52.99-1.17.99Zm13.8-6.95a.85.85 0 0 1-.87.89h-7.13v.7c0 2.07.91 3.43 3 3.43a6.521 6.521 0 0 0 2.33-.37c.418-.22.866-.379 1.33-.47a.859.859 0 0 1 .87.94c0 .52-.55 1-1.34 1.28a9.403 9.403 0 0 1-3.32.55c-3.76 0-5.15-2.56-5.15-5.54v-2.43c0-3 1.49-5.54 5.15-5.54s5.13 2.45 5.13 5.54v1.02Zm-5.1-4.71c-2 0-2.9 1.33-2.9 3.35v.44h5.77v-.47c0-2.01-.7-3.32-2.87-3.32Z" fill="#A2C617"/><path d="M161.95 78.04a3.612 3.612 0 0 1-3.62-3.62V52.93l-7.69 16a3.835 3.835 0 0 1-3.481 2.29 3.838 3.838 0 0 1-3.519-2.23l-7.69-16.06v21.55a3.569 3.569 0 0 1-7.13 0V39.41a3.568 3.568 0 0 1 1.069-2.593 3.58 3.58 0 0 1 2.611-1.027 3.689 3.689 0 0 1 3.79 2.31l10.92 22.24 11-22.46a3.863 3.863 0 0 1 4.23-2.02 3.858 3.858 0 0 1 3.06 3.55v35a3.568 3.568 0 0 1-1.014 2.56 3.57 3.57 0 0 1-2.536 1.07Zm14.36-34a4.328 4.328 0 0 1-4.21-5.208 4.33 4.33 0 0 1 8.57.918 4.3 4.3 0 0 1-4.36 4.29Zm0 33.83a3.828 3.828 0 0 1-3.79-3.79V51.62a3.822 3.822 0 0 1 6.521-2.701 3.818 3.818 0 0 1 1.119 2.701v22.46a3.82 3.82 0 0 1-1.137 2.695 3.818 3.818 0 0 1-2.713 1.095Zm16.57 0a5.878 5.878 0 0 1-3.56-1.24 7.914 7.914 0 0 1-3-6.68V40.37a3.85 3.85 0 0 1 7.7 0v29a3.354 3.354 0 0 0 1.64 3.17 2.894 2.894 0 0 1 1.07 2.26c.03 2.17-1.64 3.07-3.85 3.07Zm11.99-33.83a4.328 4.328 0 0 1-4.21-5.208 4.33 4.33 0 0 1 8.57.918 4.29 4.29 0 0 1-4.36 4.29Zm0 33.83a3.828 3.828 0 0 1-3.79-3.79V51.62a3.822 3.822 0 0 1 6.521-2.701 3.818 3.818 0 0 1 1.119 2.701v22.46a3.802 3.802 0 0 1-1.137 2.695 3.818 3.818 0 0 1-2.713 1.095Zm32.02-15.44a2.62 2.62 0 0 1-2.6 2.71h-13.53v1.13c0 3.4 1.52 5.49 4.81 5.49 1.453.014 2.9-.195 4.29-.62a8.904 8.904 0 0 1 3.06-.91 2.653 2.653 0 0 1 2.597 1.829c.118.361.156.744.113 1.121 0 1.64-1.41 2.77-3.28 3.56a23.11 23.11 0 0 1-7.29 1.13c-8.83 0-11.94-5.77-11.94-12.39v-5.26c0-6.62 3.68-12.44 11.94-12.44 8.54 0 11.82 5.65 11.82 12.33l.01 2.32Zm-11.65-8.71c-3 0-4.47 1.86-4.47 5v.74h8.76v-.74c0-3.19-1.24-5-4.29-5Zm38.57 24.15a5.77 5.77 0 0 1-5-2.88 11.84 11.84 0 0 1-8.37 2.88c-6.79 0-9.5-4.3-9.5-10.58V51.62a3.842 3.842 0 0 1 3.79-3.84 3.889 3.889 0 0 1 3.85 3.84v14.71c0 2.6.67 4.41 4 4.41a5.5 5.5 0 0 0 4.69-2.43V51.62a3.883 3.883 0 0 1 3.85-3.84 3.839 3.839 0 0 1 3.79 3.84v17.71a3.4 3.4 0 0 0 1.69 3.17 2.876 2.876 0 0 1 1.08 2.26c-.02 2.21-1.66 3.11-3.87 3.11Z" fill="#009640"/><path d="M285.03 77.53h-8a1.844 1.844 0 0 1-1.712-1.14 1.855 1.855 0 0 1-.138-.71V49.36a1.869 1.869 0 0 1 1.85-1.85h8c9.18 0 10.58 6.67 10.58 11.2v7.66c0 4.49-1.4 11.16-10.58 11.16Zm6.88-18.78c0-3.87-1.11-7.7-7.09-7.7h-6v23h6c6 0 7.09-3.87 7.09-7.7v-7.6ZM318.4 77.9a1.819 1.819 0 0 1-1.81-1.44c-.49-2-1-4-1.6-5.93h-11.78c-.54 1.94-1.07 4-1.61 5.93a1.762 1.762 0 0 1-1.73 1.44 1.78 1.78 0 0 1-1.77-2.26 195.43 195.43 0 0 1 8.66-26.48c.7-1.69 1.53-2 2.35-2 .82 0 1.69.33 2.43 2a195.493 195.493 0 0 1 8.68 26.46 1.785 1.785 0 0 1-.322 1.61 1.788 1.788 0 0 1-1.498.67Zm-9.3-24.79c-1.81 4.57-3.46 9.18-4.94 14h9.88c-1.48-4.82-3.13-9.43-4.94-14Zm30.47-2.02h-7.81v25a1.85 1.85 0 0 1-1.141 1.712 1.87 1.87 0 0 1-2.569-1.712v-25h-7.78a1.753 1.753 0 0 1-1.641-1.09 1.744 1.744 0 0 1-.129-.68 1.786 1.786 0 0 1 1.77-1.81h19.27a1.828 1.828 0 0 1 1.82 1.81 1.803 1.803 0 0 1-1.79 1.77Zm20.1 26.81a1.819 1.819 0 0 1-1.81-1.44c-.5-2-1-4-1.61-5.93h-11.78c-.53 1.94-1.07 4-1.6 5.93a1.794 1.794 0 0 1-.782 1.188 1.806 1.806 0 0 1-2.06-.056 1.809 1.809 0 0 1-.658-1.952 194.244 194.244 0 0 1 8.69-26.48c.7-1.69 1.52-2 2.34-2 .82 0 1.69.33 2.43 2a195.571 195.571 0 0 1 8.65 26.46 1.797 1.797 0 0 1-.983 2.123 1.79 1.79 0 0 1-.827.157Zm-9.31-24.79c-1.81 4.57-3.46 9.18-4.94 14h9.88c-1.48-4.82-3.13-9.43-4.94-14Zm26.07 24.42h-9.06a1.844 1.844 0 0 1-1.712-1.14 1.855 1.855 0 0 1-.138-.71V49.36a1.869 1.869 0 0 1 1.85-1.85h8.2c6.34 0 8.81 3.42 8.81 7.37v1.24a5.999 5.999 0 0 1-3.91 6 6.761 6.761 0 0 1 5.15 6.63v1.11c0 4.42-2.35 7.67-9.19 7.67Zm4.25-22.24c0-2.47-1.45-4.28-5.15-4.28h-6.3v9.72h4.53c4.16 0 7-1 7-4.24l-.08-1.2Zm1.27 13.22c0-2.8-2.3-4.45-6.17-4.45h-6.55v10h7.16c4.33 0 5.56-1.93 5.56-4.57v-.98Zm27.06 9.39a1.819 1.819 0 0 1-1.81-1.44c-.49-2-1-4-1.61-5.93h-11.77c-.54 1.94-1.07 4-1.61 5.93a1.799 1.799 0 1 1-3.45-.84 195.487 195.487 0 0 1 8.69-26.48c.7-1.69 1.52-2 2.35-2 .83 0 1.69.33 2.43 2a196.852 196.852 0 0 1 8.6 26.48 1.802 1.802 0 0 1-1.82 2.28Zm-9.25-24.79c-1.82 4.57-3.46 9.18-4.95 14h9.89c-1.54-4.82-3.18-9.43-4.94-14Zm22.85 24.79a19.67 19.67 0 0 1-7.91-1.32 1.769 1.769 0 0 1-1.2-1.69 1.703 1.703 0 0 1 .458-1.227 1.701 1.701 0 0 1 1.192-.543c.74 0 1.4.62 3.5 1a16.53 16.53 0 0 0 3.67.37c5 0 7.29-2.26 7.29-5.51 0-2.52-1.28-3.63-4-4.41-2.18-.74-6.05-1.07-8.32-2.18-2.27-1.11-3.7-2.93-3.7-6.43 0-5.6 4.2-8.85 9.67-8.85a17.709 17.709 0 0 1 6.88 1.15 1.776 1.776 0 0 1 .595 3.013 1.781 1.781 0 0 1-1.125.447c-.62 0-1.28-.54-3.05-.91a14.801 14.801 0 0 0-3.09-.29c-3.87 0-6.18 2-6.18 5.11 0 2.64 1.49 3.63 4.08 4.33 2.76.78 6.75 1 9 2.55 1.93 1.28 3 3.21 3 6.14-.06 5.97-4.34 9.25-10.76 9.25Zm31.3-.37h-14.33a1.756 1.756 0 0 1-1.647-1.089 1.768 1.768 0 0 1-.133-.681V49.28a1.79 1.79 0 0 1 1.78-1.77h13.71a1.81 1.81 0 0 1 1.81 1.77 1.805 1.805 0 0 1-.538 1.26 1.79 1.79 0 0 1-1.272.51h-11.78v9.76h10.71a1.728 1.728 0 0 1 1.223 2.953 1.728 1.728 0 0 1-1.223.507h-10.71v9.72h12.4a1.768 1.768 0 0 1 1.77 1.77 1.77 1.77 0 0 1-1.77 1.77Z" fill="#A2C617"/><path d="m16.39 15.91 8.51 4.94A45.48 45.48 0 0 1 52.22 9.52L54.76.01a54.9 54.9 0 0 0-38.37 15.9Z" fill="url(#b)"/><path d="m94 16.05-4.92 8.49a45.59 45.59 0 0 1 11.68 27.64l9.51 2.53A55.002 55.002 0 0 0 94 16.05Z" fill="url(#c)"/><path d="M93.76 15.8A54.92 54.92 0 0 0 55.23 0l2.53 9.49a45.5 45.5 0 0 1 27.5 11.26l8.5-4.95Z" fill="url(#d)"/><path d="M16.06 16.23a55 55 0 0 0-16 38.4l9.52-2.52a45.529 45.529 0 0 1 11.41-27.38l-4.93-8.5Z" fill="url(#e)"/><path d="M85.63 89.13a45.498 45.498 0 0 1-28.06 11.62l-2.52 9.48h.07a54.998 54.998 0 0 0 39-16.16l-8.49-4.94Z" fill="url(#f)"/><path d="M100.76 57.45a45.529 45.529 0 0 1-11.48 28l4.94 8.5a54.929 54.929 0 0 0 16-38.84v-.18l-9.46 2.52Z" fill="url(#g)"/><path d="M52.38 100.73a45.55 45.55 0 0 1-27.88-11.7l-8.48 4.93a55.003 55.003 0 0 0 38.88 16.27l-2.52-9.5Z" fill="url(#h)"/><path d="M20.76 85.26A45.51 45.51 0 0 1 9.45 57.53l-9.48-2.52v.11a54.92 54.92 0 0 0 15.85 38.66l4.94-8.52Z" fill="url(#i)"/><path d="M90.01 65.5A36.48 36.48 0 0 0 50.6 18.95a6.68 6.68 0 0 0-12.73 2.84 6.5 6.5 0 0 0 .1 1.09 36.71 36.71 0 0 0-16.72 18.25 6.68 6.68 0 0 0-2.79 12.49v1.63a36.519 36.519 0 0 0 65.78 21.87 6.68 6.68 0 0 0 5.81-11.58l-.04-.04Zm-3.25-10.29a31.799 31.799 0 0 1-1.21 8.67h-.17a38.09 38.09 0 0 0-11.62-15.74 6.743 6.743 0 0 0 .51-2.58 6.67 6.67 0 0 0-4.25-6.22c-.07-.92-.17-1.84-.32-2.79a45.69 45.69 0 0 0-3.33-11 31.82 31.82 0 0 1 20.39 29.66ZM45.32 61.4a6.63 6.63 0 0 0-3 .74c-2.76-5.47-2.9-12.64-2.07-19.29a34.31 34.31 0 0 1 20.74 2v.68a6.67 6.67 0 0 0 3.3 5.76 22 22 0 0 1-7.64 8.75 44.699 44.699 0 0 1-6.24 3.61 6.66 6.66 0 0 0-5.11-2.25h.02Zm15.91-37.35a42.653 42.653 0 0 1 4.53 13.24c.09.6.17 1.19.23 1.77a6.71 6.71 0 0 0-3.55 2.18 37.87 37.87 0 0 0-21.58-2.62c.654-3.46 1.51-6.88 2.56-10.24.376.072.757.11 1.14.11a6.7 6.7 0 0 0 6.41-4.8 32.58 32.58 0 0 1 4-.26 31.425 31.425 0 0 1 6.24.62h.02Zm-21.68 3.37a91.09 91.09 0 0 0-2.89 12.09 50.085 50.085 0 0 0-9.9 3.84c-.286-.318-.6-.61-.94-.87a32 32 0 0 1 13.73-15.06Zm-16.36 26.9a6.69 6.69 0 0 0 5.28-6.53 6.507 6.507 0 0 0 0-.77 48.573 48.573 0 0 1 7.65-3.13c-.73 7.3-.25 15.13 3.27 21.18a6.788 6.788 0 0 0-.64 2 32 32 0 0 1-13.64-1 31.698 31.698 0 0 1-1.89-10.81c-.05-.35-.04-.64-.03-.94Zm4 16.31a37.84 37.84 0 0 0 7.13.67 40.793 40.793 0 0 0 5-.32 6.65 6.65 0 0 0 8.79 3.18 54.999 54.999 0 0 0 21.65 9.15 31.74 31.74 0 0 1-42.59-12.69l.02.01Zm47.57 9.45c-3.77-.45-14.51-2.24-23.64-8.65a6.69 6.69 0 0 0 .9-3.35 6.987 6.987 0 0 0 0-.79 47.296 47.296 0 0 0 6.88-4 25.72 25.72 0 0 0 9.31-11.11 6.641 6.641 0 0 0 3.07-1 36.41 36.41 0 0 1 8.15 9.38 31.113 31.113 0 0 1 2.28 4.67 6.68 6.68 0 0 0-1.39 9.23 32.215 32.215 0 0 1-5.56 5.62Z" fill="url(#j)"/><path d="M44.27 25.38a3.77 3.77 0 1 0 0-7.54 3.77 3.77 0 0 0 0 7.54Z" fill="#009640"/><path d="M45.15 71.72a3.77 3.77 0 1 0 0-7.54 3.77 3.77 0 0 0 0 7.54Z" fill="#FFED00"/><path d="M85.72 74.38a3.77 3.77 0 1 0 0-7.54 3.77 3.77 0 0 0 0 7.54Z" fill="#0BBBEF"/><path d="M21.65 51.54a3.77 3.77 0 1 0 0-7.54 3.77 3.77 0 0 0 0 7.54Z" fill="#C6774B"/><path d="M67.55 49.32a3.77 3.77 0 1 0 0-7.54 3.77 3.77 0 0 0 0 7.54Z" fill="#fff"/><path d="M137.76 99.46a.808.808 0 0 1-.8-.81v-6.68l-2.44 5.13a.822.822 0 0 1-.77.5.882.882 0 0 1-.79-.5l-2.42-5.13v6.7a.79.79 0 1 1-1.58 0v-9.71a.803.803 0 0 1 .83-.8.81.81 0 0 1 .83.51l3.15 6.52 3.17-6.56a.857.857 0 0 1 .934-.445.862.862 0 0 1 .686.775v9.66a.816.816 0 0 1-.486.773.812.812 0 0 1-.314.067Zm11.7 0a.824.824 0 0 1-.82-.68c-.15-.64-.33-1.28-.5-1.88h-3.93c-.18.6-.35 1.24-.5 1.88a.822.822 0 0 1-.8.68.837.837 0 0 1-.839-.666.857.857 0 0 1 .009-.384 64.657 64.657 0 0 1 3-9.34c.3-.77.72-.91 1.1-.91.38 0 .82.14 1.12.91a64.657 64.657 0 0 1 3 9.34.846.846 0 0 1-.464.97.852.852 0 0 1-.376.08Zm-3.28-8.58c-.56 1.45-1.08 2.94-1.55 4.46h3.13c-.51-1.52-1-3.01-1.58-4.46Zm14.34 8.58a.808.808 0 0 1-.81-.68c-.15-.64-.33-1.28-.5-1.88h-3.93c-.18.6-.35 1.24-.5 1.88a.84.84 0 1 1-1.63-.37 65.78 65.78 0 0 1 3-9.34c.31-.77.73-.91 1.11-.91.38 0 .81.14 1.12.91a64.657 64.657 0 0 1 3 9.34.86.86 0 0 1-.86 1.05Zm-3.28-8.58a67.682 67.682 0 0 0-1.54 4.46h3.06a54.803 54.803 0 0 0-1.52-4.46Zm15.05 7.74a.88.88 0 0 1-.269.61.872.872 0 0 1-.621.24.84.84 0 0 1-.74-.49 54.483 54.483 0 0 0-2.89-4.72l-1.12 1.3v3a.861.861 0 0 1-1.468.608.861.861 0 0 1-.252-.608v-9.54a.861.861 0 0 1 1.468-.608c.161.161.252.38.252.608v4.25l3.86-4.79a.796.796 0 0 1 .65-.32.828.828 0 0 1 .84.85.8.8 0 0 1-.21.54l-2.86 3.36a51.79 51.79 0 0 1 3.27 5.29c.06.132.091.275.09.42Zm10.04-8.65h-2.57v8.65a.861.861 0 0 1-1.468.608.861.861 0 0 1-.252-.608V90h-2.59a.84.84 0 0 1 0-1.67h6.9a.839.839 0 0 1 0 1.67l-.02-.03Zm16.43.41c-.24 0-.38-.16-.75-.36a2.23 2.23 0 0 0-1.23-.3c-1.54 0-2.28 1-2.28 3.26v1.64c0 2.33.71 3.22 2.2 3.22a2.71 2.71 0 0 0 1.41-.36c.206-.164.45-.274.71-.32a.69.69 0 0 1 .71.73 1.066 1.066 0 0 1-.48.8c-.689.48-1.51.735-2.35.73-2.85 0-3.93-1.94-3.93-4.78V92.9c0-2.74 1.09-4.78 4-4.78a3.87 3.87 0 0 1 2.27.67 1 1 0 0 1 .5.78.765.765 0 0 1-.211.578.756.756 0 0 1-.569.232Zm5.51 9.08a.858.858 0 0 1-.86-.87v-9.57a.861.861 0 0 1 1.468-.608c.161.161.252.38.252.608v9.6a.858.858 0 0 1-.86.84Zm11.84 0a.798.798 0 0 1-.76-.52 41.552 41.552 0 0 0-2.23-4h-1.73v3.68a.861.861 0 0 1-1.468.608.861.861 0 0 1-.252-.608v-9.43a.861.861 0 0 1 .86-.86h2.87c2.38 0 3.5 1.18 3.5 3v.62a2.658 2.658 0 0 1-2 2.7c.74 1.21 1.39 2.42 2 3.64a.86.86 0 0 1-.096.787.867.867 0 0 1-.694.383Zm-.94-8.19c0-.78-.53-1.36-1.8-1.36h-2v3.42h1.94c1.19 0 1.84-.6 1.84-1.44l.02-.62Zm11.36-.89c-.24 0-.38-.16-.76-.36a2.17 2.17 0 0 0-1.22-.3c-1.55 0-2.29 1-2.29 3.26v1.64c0 2.33.71 3.22 2.21 3.22a2.71 2.71 0 0 0 1.41-.36c.206-.164.45-.274.71-.32a.69.69 0 0 1 .71.73 1.066 1.066 0 0 1-.48.8 4.1 4.1 0 0 1-2.35.73c-2.86 0-3.93-1.94-3.93-4.78V92.9c0-2.74 1.09-4.78 4-4.78a3.9 3.9 0 0 1 2.27.67 1 1 0 0 1 .49.78.76.76 0 0 1-.462.754.755.755 0 0 1-.308.056Zm8.23 9.08a3.5 3.5 0 0 1-3.85-3.72v-6.72a.861.861 0 0 1 1.468-.608c.161.161.252.38.252.608v6.65a2.137 2.137 0 0 0 2.14 2.14 2.138 2.138 0 0 0 2.14-2.14v-6.65a.861.861 0 0 1 1.468-.608c.161.161.252.38.252.608v6.72a3.514 3.514 0 0 1-2.364 3.55 3.512 3.512 0 0 1-1.506.17Zm14.07-.14h-5.07a.82.82 0 0 1-.82-.82v-9.48a.869.869 0 0 1 1.73 0v8.65h4.14a.829.829 0 0 1 .587 1.403.821.821 0 0 1-.567.247Zm10.37.14a.808.808 0 0 1-.81-.68c-.15-.64-.34-1.28-.5-1.88h-3.93c-.19.6-.35 1.24-.5 1.88a.832.832 0 0 1-.8.68.845.845 0 0 1-.683-.315.842.842 0 0 1-.157-.735 65.78 65.78 0 0 1 3-9.34c.31-.77.73-.91 1.11-.91.38 0 .81.14 1.12.91a65.78 65.78 0 0 1 3 9.34.863.863 0 0 1-.474.969.856.856 0 0 1-.376.081Zm-3.28-8.58a67.682 67.682 0 0 0-1.54 4.46h3.08c-.46-1.52-.98-3.01-1.54-4.46Zm8.55 8.58a.866.866 0 0 1-.807-.535.87.87 0 0 1-.063-.335v-9.57a.869.869 0 0 1 1.73 0v9.6a.858.858 0 0 1-.86.84Zm11.83 0a.799.799 0 0 1-.75-.52 39.686 39.686 0 0 0-2.24-4h-1.72v3.68a.88.88 0 0 1-.218.674.86.86 0 0 1-.647.29.867.867 0 0 1-.828-.604c-.037-.116-.05-.239-.037-.36v-9.43a.861.861 0 0 1 .86-.86h2.88c2.37 0 3.49 1.18 3.49 3v.62a2.658 2.658 0 0 1-2 2.7c.74 1.21 1.39 2.42 2 3.64a.86.86 0 0 1-.096.787.867.867 0 0 1-.694.383Zm-.93-8.19c0-.78-.53-1.36-1.8-1.36h-2v3.42h1.93c1.2 0 1.85-.6 1.85-1.44l.02-.62Zm17.02 8.05h-3.29a.854.854 0 0 1-.611-.249.84.84 0 0 1-.249-.611v-9.3a.852.852 0 0 1 .86-.86h3c2.39 0 3.29 1.31 3.29 2.73v.44a2.211 2.211 0 0 1-1.4 2.18 2.466 2.466 0 0 1 1.84 2.42v.42c-.07 1.59-.93 2.83-3.44 2.83Zm1.23-8.06c0-.79-.5-1.36-1.6-1.36h-2.06v3.13h1.54c1.23 0 2.12-.33 2.12-1.36v-.41Zm.44 4.69c0-.85-.7-1.39-1.86-1.39h-2.24v3.17h2.4c1.29 0 1.7-.62 1.7-1.45v-.33Zm9.54 3.52c-2.89 0-3.86-2-3.86-4.1v-3.13c0-2.05 1-4.08 3.86-4.08s3.87 2 3.87 4.08v3.13c0 2.06-.98 4.1-3.87 4.1Zm2.15-7.23c0-1.42-.5-2.51-2.15-2.51s-2.13 1.08-2.13 2.51v3.13c0 1.44.5 2.53 2.13 2.53s2.15-1.09 2.15-2.53v-3.13Zm9.66 7.22a3.508 3.508 0 0 1-3.86-3.72v-6.72a.863.863 0 0 1 .252-.608.864.864 0 0 1 .608-.252.88.88 0 0 1 .87.86v6.65a2.137 2.137 0 0 0 2.14 2.14 2.138 2.138 0 0 0 2.14-2.14v-6.65a.861.861 0 0 1 1.468-.608c.161.161.252.38.252.608v6.72a3.514 3.514 0 0 1-2.364 3.55 3.512 3.512 0 0 1-1.506.17Zm19.94-10.27c-.71 3.23-1.43 6.11-2.33 9.28-.18.64-.55 1-1.11 1a1.191 1.191 0 0 1-1.12-1c-.65-2.33-1.23-4.59-1.77-6.91-.55 2.32-1.14 4.58-1.79 6.91a1.12 1.12 0 0 1-2.22 0c-.91-3.17-1.63-6-2.34-9.28a.885.885 0 0 1 0-.23.838.838 0 0 1 .264-.578.835.835 0 0 1 .596-.222.8.8 0 0 1 .8.67c.56 2.64 1.17 5.14 1.88 7.77.68-2.53 1.28-5 1.8-7.43.12-.57.44-1 1-1s.89.42 1 1c.53 2.44 1.12 4.9 1.8 7.43.73-2.63 1.33-5.13 1.89-7.77a.786.786 0 0 1 .8-.67.817.817 0 0 1 .788.483c.045.1.069.207.072.317a.932.932 0 0 1-.01.23Zm9.23 10.13h-5.1a.82.82 0 0 1-.82-.82v-9.37a.828.828 0 0 1 .82-.83h4.88a.816.816 0 0 1 .76.513.82.82 0 0 1-.003.63.808.808 0 0 1-.757.497h-4v3.07h3.61a.808.808 0 0 1 .8.81.783.783 0 0 1-.238.556.804.804 0 0 1-.562.224h-3.61v3.07h4.19a.819.819 0 0 1 .81.83.808.808 0 0 1-.78.82Zm11.55.14a.909.909 0 0 1-.83-.43l-4.45-7.3v6.94a.79.79 0 0 1-1.352.56.8.8 0 0 1-.238-.56v-9.72a.802.802 0 0 1 .252-.581.79.79 0 0 1 .598-.209 1.002 1.002 0 0 1 .85.45l4.43 7.29v-6.95a.79.79 0 0 1 1.346-.56.81.81 0 0 1 .244.56v9.72a.826.826 0 0 1-.258.574.823.823 0 0 1-.592.216Zm21.46 0a.822.822 0 0 1-.83-.84v-6.68l-2.43 5.13a.818.818 0 0 1-.77.5.882.882 0 0 1-.79-.5l-2.42-5.13v6.7a.79.79 0 1 1-1.58 0v-9.71a.803.803 0 0 1 .83-.8.81.81 0 0 1 .83.51l3.14 6.52 3.19-6.54a.857.857 0 0 1 .934-.445.862.862 0 0 1 .686.775v9.67a.82.82 0 0 1-.79.84Zm11.25-.14h-5.08a.82.82 0 0 1-.82-.82v-9.37a.828.828 0 0 1 .82-.83h4.88a.816.816 0 0 1 .76.513.82.82 0 0 1-.003.63.808.808 0 0 1-.757.497h-4v3.07h3.61a.808.808 0 0 1 .8.81.783.783 0 0 1-.238.556.804.804 0 0 1-.562.224h-3.61v3.07h4.19a.819.819 0 0 1 .81.83.806.806 0 0 1-.491.754.812.812 0 0 1-.309.066Zm10.59 0h-5.09a.81.81 0 0 1-.82-.82v-9.37a.817.817 0 0 1 .504-.767.816.816 0 0 1 .316-.063h4.88a.816.816 0 0 1 .76.513.82.82 0 0 1-.003.63.81.81 0 0 1-.757.498h-4v3.069h3.61a.808.808 0 0 1 .8.81.783.783 0 0 1-.238.556.804.804 0 0 1-.562.224h-3.61v3.07h4.18a.829.829 0 0 1 .82.83.809.809 0 0 1-.79.82Zm11.38-9.35h-2.59v8.65a.86.86 0 0 1-.86.87.852.852 0 0 1-.86-.87V90h-2.59a.84.84 0 0 1 0-1.67h6.9a.839.839 0 0 1 0 1.67v-.03Zm8.16 9.35h-3.3a.854.854 0 0 1-.611-.249.84.84 0 0 1-.249-.611v-9.3a.863.863 0 0 1 .252-.608.864.864 0 0 1 .608-.252h2.95c2.39 0 3.3 1.31 3.3 2.73v.44a2.2 2.2 0 0 1-1.41 2.18 2.477 2.477 0 0 1 1.85 2.42v.42c0 1.59-.88 2.83-3.39 2.83Zm1.23-8.06c0-.79-.5-1.36-1.61-1.36h-2.05v3.13h1.54c1.22 0 2.12-.33 2.12-1.36v-.41Zm.43 4.69c0-.85-.69-1.39-1.86-1.39h-2.23v3.17h2.4c1.29 0 1.69-.62 1.69-1.45v-.33Zm12.19 3.51a.798.798 0 0 1-.81-.68c-.16-.64-.34-1.28-.5-1.88h-3.93c-.19.6-.35 1.24-.5 1.88a.83.83 0 0 1-.81.68.837.837 0 0 1-.839-.666.857.857 0 0 1 .009-.384 64.657 64.657 0 0 1 3-9.34c.31-.77.73-.91 1.11-.91.38 0 .81.14 1.12.91a65.78 65.78 0 0 1 3 9.34.843.843 0 0 1-.165.735.857.857 0 0 1-.685.315Zm-3.28-8.58a67.682 67.682 0 0 0-1.54 4.46h3.08a67.682 67.682 0 0 0-1.54-4.46Zm14.35 8.58a.82.82 0 0 1-.82-.68c-.15-.64-.33-1.28-.49-1.88h-3.94c-.18.6-.34 1.24-.5 1.88a.809.809 0 0 1-.8.68.837.837 0 0 1-.839-.666.857.857 0 0 1 .009-.384 64.657 64.657 0 0 1 3-9.34c.3-.77.73-.91 1.11-.91.38 0 .81.14 1.11.91a64.657 64.657 0 0 1 3 9.34.846.846 0 0 1-.464.97.852.852 0 0 1-.376.08Zm-3.28-8.58a67.682 67.682 0 0 0-1.54 4.46h3.08a67.682 67.682 0 0 0-1.54-4.46Zm14.15 8.58a.794.794 0 0 1-.75-.52 41.617 41.617 0 0 0-2.24-4h-1.73v3.68a.861.861 0 0 1-1.468.608.861.861 0 0 1-.252-.608v-9.43a.864.864 0 0 1 .252-.608.864.864 0 0 1 .608-.252h2.87c2.38 0 3.5 1.18 3.5 3v.62a2.658 2.658 0 0 1-2 2.7c.74 1.21 1.39 2.42 2 3.64a.86.86 0 0 1-.096.787.867.867 0 0 1-.694.383Zm-.94-8.19c0-.78-.53-1.36-1.8-1.36h-2v3.42h1.94c1.19 0 1.84-.6 1.84-1.44l.02-.62Z" fill="#009640"/></g><defs><linearGradient id="b" x1="29.39" y1="-2.01" x2="93.68" y2="101.74" gradientUnits="userSpaceOnUse"><stop stop-color="#AFCA0B"/><stop offset="1" stop-color="#009640"/></linearGradient><linearGradient id="c" x1="2826.83" y1="1545.83" x2="5581.62" y2="3982.53" gradientUnits="userSpaceOnUse"><stop stop-color="#AFCA0B"/><stop offset="1" stop-color="#009640"/></linearGradient><linearGradient id="d" x1="4777.08" y1="906.567" x2="5671.73" y2="3587.46" gradientUnits="userSpaceOnUse"><stop stop-color="#AFCA0B"/><stop offset="1" stop-color="#009640"/></linearGradient><linearGradient id="e" x1="1327.65" y1="3100.52" x2="4062.19" y2="5505.43" gradientUnits="userSpaceOnUse"><stop stop-color="#AFCA0B"/><stop offset="1" stop-color="#009640"/></linearGradient><linearGradient id="f" x1="3245.12" y1="1545.67" x2="4156.91" y2="4270.25" gradientUnits="userSpaceOnUse"><stop stop-color="#AFCA0B"/><stop offset="1" stop-color="#009640"/></linearGradient><linearGradient id="g" x1="2476.87" y1="1965.74" x2="5249.54" y2="4366.97" gradientUnits="userSpaceOnUse"><stop stop-color="#AFCA0B"/><stop offset="1" stop-color="#009640"/></linearGradient><linearGradient id="h" x1="2139.65" y1="1907.57" x2="3062.79" y2="4639.72" gradientUnits="userSpaceOnUse"><stop stop-color="#AFCA0B"/><stop offset="1" stop-color="#009640"/></linearGradient><linearGradient id="i" x1="1001.84" y1="3535.01" x2="3756.61" y2="5919.14" gradientUnits="userSpaceOnUse"><stop stop-color="#AFCA0B"/><stop offset="1" stop-color="#009640"/></linearGradient><linearGradient id="j" x1="7914.33" y1="6113.85" x2="10620.8" y2="11571.8" gradientUnits="userSpaceOnUse"><stop stop-color="#AFCA0B"/><stop offset="1" stop-color="#009640"/></linearGradient><clipPath id="a"><path fill="#fff" d="M0 0h455.64v110.23H0z"/></clipPath></defs></svg>