<svg width="457" height="111" viewBox="0 0 457 111" fill="none" xmlns="http://www.w3.org/2000/svg">
<path d="M142.15 25.9C141.928 25.9134 141.707 25.8666 141.51 25.7645C141.313 25.6624 141.147 25.5088 141.03 25.32L132.35 11.23V24.8C132.347 25.0909 132.231 25.3692 132.025 25.5749C131.819 25.7807 131.541 25.8974 131.25 25.9C131.107 25.8988 130.966 25.8694 130.835 25.8133C130.704 25.7572 130.585 25.6757 130.485 25.5734C130.386 25.4711 130.308 25.35 130.255 25.2173C130.203 25.0845 130.177 24.9427 130.18 24.8V7.47C130.178 7.32067 130.206 7.17247 130.264 7.03477C130.322 6.89707 130.408 6.77287 130.516 6.67C130.624 6.56709 130.752 6.48738 130.892 6.43578C131.032 6.38419 131.181 6.3618 131.33 6.37C131.566 6.35324 131.801 6.40708 132.006 6.52464C132.21 6.6422 132.376 6.81814 132.48 7.03L141.13 21.03V7.47C141.132 7.17875 141.248 6.89987 141.454 6.69392C141.66 6.48797 141.939 6.37158 142.23 6.37C142.373 6.37116 142.514 6.40063 142.645 6.4567C142.776 6.51276 142.895 6.59431 142.995 6.69662C143.094 6.79892 143.172 6.91996 143.225 7.05271C143.277 7.18547 143.303 7.3273 143.3 7.47V24.8C143.301 24.9491 143.272 25.0969 143.214 25.2342C143.156 25.3716 143.071 25.4956 142.963 25.5987C142.855 25.7017 142.727 25.7816 142.588 25.8335C142.448 25.8853 142.299 25.9079 142.15 25.9ZM156.53 25.82C156.105 25.8229 155.69 25.6859 155.35 25.43C155.046 25.1805 154.812 24.8567 154.67 24.49C154.182 24.9484 153.606 25.3027 152.977 25.5314C152.348 25.76 151.678 25.8582 151.01 25.82C147.8 25.82 146.44 24.12 146.44 21.95V21.77C146.44 19.6 147.93 17.98 151.27 17.98H154.27V17.32C154.27 15.26 153.77 14.21 151.57 14.21C150.887 14.1854 150.206 14.3011 149.57 14.55C149.191 14.7741 148.774 14.9266 148.34 15C148.218 15.0027 148.096 14.9808 147.982 14.9358C147.868 14.8908 147.764 14.8234 147.676 14.7377C147.589 14.652 147.519 14.5497 147.472 14.4368C147.424 14.3238 147.4 14.2025 147.4 14.08C147.4 13.53 147.93 13.08 148.66 12.83C149.645 12.4644 150.69 12.288 151.74 12.31C155.45 12.31 156.55 14.11 156.55 17.53V22.42C156.55 23.42 156.79 23.78 157.28 24.04C157.419 24.1189 157.535 24.234 157.614 24.373C157.693 24.5121 157.733 24.67 157.73 24.83C157.68 25.51 157.21 25.82 156.53 25.82ZM154.23 19.76H151.48C149.29 19.76 148.71 20.76 148.71 21.76V21.95C148.71 23.07 149.34 24.01 151.4 24.01C151.776 24.0618 152.159 24.0275 152.52 23.9095C152.88 23.7915 153.209 23.593 153.482 23.329C153.755 23.065 153.964 22.7424 154.093 22.3857C154.223 22.029 154.27 21.6474 154.23 21.27V19.76ZM166.51 25.62H165.76C162.15 25.62 161.21 23.37 161.21 19.95V14.42H160.45C160.185 14.42 159.93 14.3146 159.743 14.1271C159.555 13.9396 159.45 13.6852 159.45 13.42C159.45 13.1548 159.555 12.9004 159.743 12.7129C159.93 12.5254 160.185 12.42 160.45 12.42H161.21V9.77C161.21 9.46765 161.33 9.17769 161.544 8.9639C161.758 8.75011 162.048 8.63 162.35 8.63C162.652 8.63 162.942 8.75011 163.156 8.9639C163.37 9.17769 163.49 9.46765 163.49 9.77V12.46H165.92C166.185 12.46 166.44 12.5654 166.627 12.7529C166.815 12.9404 166.92 13.1948 166.92 13.46C166.92 13.7252 166.815 13.9796 166.627 14.1671C166.44 14.3546 166.185 14.46 165.92 14.46H163.46V20C163.46 22.62 163.88 23.61 165.94 23.61H166.49C166.759 23.6218 167.014 23.737 167.2 23.9317C167.386 24.1264 167.49 24.3855 167.49 24.655C167.49 24.9245 167.386 25.1836 167.2 25.3783C167.014 25.573 166.759 25.6882 166.49 25.7L166.51 25.62ZM171.32 9.62C171.136 9.62436 170.954 9.59182 170.783 9.52432C170.612 9.45681 170.456 9.35571 170.325 9.227C170.193 9.09888 170.088 8.94542 170.017 8.77582C169.946 8.60622 169.909 8.42398 169.91 8.24C169.893 8.04275 169.917 7.84412 169.981 7.65678C170.045 7.46945 170.148 7.29753 170.282 7.152C170.484 6.93303 170.75 6.7826 171.042 6.72166C171.333 6.66072 171.637 6.6923 171.91 6.812C172.183 6.93187 172.412 7.13405 172.564 7.39027C172.716 7.64649 172.785 7.94393 172.76 8.241C172.758 8.42666 172.72 8.61012 172.646 8.78062C172.573 8.95113 172.466 9.10526 172.332 9.234C172.198 9.36251 172.039 9.46286 171.865 9.52915C171.691 9.59543 171.506 9.62632 171.32 9.62ZM171.32 25.83C171.171 25.8287 171.023 25.7979 170.886 25.7392C170.749 25.6806 170.624 25.5954 170.52 25.4884C170.416 25.3815 170.334 25.255 170.279 25.1163C170.224 24.9775 170.197 24.8292 170.2 24.68V13.46C170.196 13.3104 170.223 13.1616 170.277 13.0222C170.331 12.8828 170.413 12.7556 170.517 12.648C170.622 12.5411 170.747 12.4561 170.884 12.3981C171.022 12.3401 171.17 12.3101 171.32 12.31C171.471 12.309 171.621 12.338 171.761 12.3953C171.902 12.4526 172.029 12.5372 172.136 12.644C172.243 12.7509 172.328 12.8782 172.385 13.0183C172.443 13.1584 172.471 13.3086 172.47 13.46V24.67C172.471 24.8213 172.441 24.9712 172.384 25.1112C172.327 25.2512 172.243 25.3786 172.136 25.486C172.029 25.5931 171.902 25.6777 171.762 25.7351C171.621 25.7924 171.471 25.8213 171.32 25.82V25.83ZM181.52 25.82C177.81 25.82 176.26 23.39 176.26 20.41V17.72C176.26 14.72 177.81 12.31 181.52 12.31C185.23 12.31 186.76 14.74 186.76 17.72V20.41C186.76 23.39 185.26 25.82 181.52 25.82ZM184.52 17.74C184.52 15.74 183.66 14.42 181.52 14.42C179.38 14.42 178.52 15.7 178.52 17.74V20.41C178.52 22.41 179.39 23.73 181.52 23.73C183.65 23.73 184.52 22.45 184.52 20.41V17.74ZM200.02 25.82C199.869 25.8203 199.719 25.7907 199.58 25.733C199.44 25.6753 199.313 25.5906 199.206 25.4838C199.099 25.3769 199.015 25.25 198.957 25.1104C198.899 24.9708 198.87 24.8211 198.87 24.67V17.3C198.87 15.65 198.43 14.47 196.42 14.47C195.79 14.4418 195.164 14.5794 194.605 14.8689C194.045 15.1585 193.571 15.5899 193.23 16.12V24.67C193.232 24.82 193.205 24.9691 193.149 25.1084C193.094 25.2478 193.011 25.3748 192.906 25.482C192.801 25.5889 192.675 25.6739 192.537 25.7319C192.399 25.7899 192.25 25.8199 192.1 25.82C191.949 25.8203 191.799 25.7907 191.66 25.733C191.52 25.6753 191.393 25.5906 191.286 25.4838C191.179 25.3769 191.095 25.25 191.037 25.1104C190.979 24.9708 190.95 24.8211 190.95 24.67V15.86C190.95 14.86 190.64 14.5 190.14 14.21C190.003 14.1398 189.889 14.0319 189.811 13.899C189.733 13.7662 189.694 13.6139 189.7 13.46C189.7 12.78 190.17 12.46 190.82 12.46C191.339 12.49 191.836 12.683 192.24 13.01C192.495 13.248 192.69 13.543 192.81 13.87C193.343 13.3329 193.984 12.9159 194.691 12.6468C195.398 12.3778 196.155 12.2629 196.91 12.31C200.21 12.31 201.17 14.31 201.17 17.09V24.67C201.17 24.8211 201.141 24.9708 201.083 25.1104C201.025 25.25 200.941 25.3769 200.834 25.4838C200.727 25.5906 200.6 25.6753 200.46 25.733C200.321 25.7907 200.171 25.8203 200.02 25.82ZM214.09 25.82C213.665 25.8229 213.25 25.6859 212.91 25.43C212.606 25.1805 212.372 24.8567 212.23 24.49C211.742 24.9486 211.166 25.3031 210.537 25.5318C209.908 25.7604 209.238 25.8585 208.57 25.82C205.36 25.82 204 24.12 204 21.95V21.77C204 19.6 205.49 17.98 208.83 17.98H211.83V17.32C211.83 15.26 211.33 14.21 209.14 14.21C208.457 14.1854 207.776 14.3011 207.14 14.55C206.761 14.7741 206.344 14.9266 205.91 15C205.788 15.0027 205.666 14.9808 205.552 14.9358C205.438 14.8908 205.334 14.8234 205.246 14.7377C205.159 14.652 205.089 14.5497 205.042 14.4368C204.994 14.3238 204.97 14.2025 204.97 14.08C204.97 13.53 205.5 13.08 206.23 12.83C207.215 12.4644 208.26 12.288 209.31 12.31C213.02 12.31 214.12 14.11 214.12 17.53V22.42C214.12 23.42 214.36 23.78 214.85 24.04C214.989 24.1189 215.105 24.234 215.184 24.373C215.263 24.5121 215.303 24.67 215.3 24.83C215.24 25.51 214.76 25.82 214.09 25.82ZM211.76 19.76H209.01C206.82 19.76 206.24 20.76 206.24 21.76V21.95C206.24 23.07 206.87 24.01 208.94 24.01C209.313 24.0594 209.691 24.0242 210.049 23.9072C210.406 23.7902 210.732 23.5943 211.003 23.334C211.274 23.0736 211.483 22.7556 211.614 22.4034C211.745 22.0513 211.795 21.6741 211.76 21.3V19.76ZM220.89 25.82C220.381 25.7853 219.895 25.5931 219.5 25.27C219.167 24.9557 218.905 24.5733 218.732 24.1488C218.56 23.7244 218.48 23.2678 218.5 22.81V7.89C218.5 7.66239 218.567 7.43978 218.693 7.25042C218.819 7.06105 218.999 6.91346 219.209 6.82637C219.42 6.73928 219.651 6.7166 219.874 6.76122C220.097 6.80584 220.302 6.91575 220.463 7.077C220.679 7.292 220.8 7.585 220.8 7.89V22.42C220.8 23.49 221.09 23.78 221.61 24.04C221.749 24.1189 221.865 24.234 221.944 24.373C222.023 24.5121 222.063 24.67 222.06 24.83C222.04 25.51 221.54 25.82 220.89 25.82ZM234.69 18.87C234.696 18.9866 234.677 19.1032 234.635 19.2123C234.594 19.3215 234.53 19.4209 234.449 19.5044C234.367 19.5879 234.269 19.6537 234.161 19.6977C234.053 19.7417 233.937 19.7629 233.82 19.76H226.69V20.46C226.69 22.53 227.6 23.89 229.69 23.89C230.483 23.9094 231.272 23.784 232.02 23.52C232.438 23.3 232.886 23.141 233.35 23.05C233.471 23.0479 233.591 23.0714 233.702 23.1188C233.813 23.1663 233.913 23.2367 233.995 23.3254C234.077 23.4141 234.14 23.5192 234.179 23.6337C234.217 23.7482 234.231 23.8696 234.22 23.99C234.22 24.51 233.67 24.99 232.88 25.27C231.815 25.6515 230.691 25.8378 229.56 25.82C225.8 25.82 224.41 23.26 224.41 20.28V17.85C224.41 14.85 225.9 12.31 229.56 12.31C233.22 12.31 234.69 14.76 234.69 17.85V18.87ZM229.59 14.16C227.59 14.16 226.69 15.49 226.69 17.51V17.95H232.46V17.48C232.46 15.47 231.76 14.16 229.59 14.16Z" fill="white"/>
<path d="M162.95 78.04C162.474 78.0411 162.003 77.9481 161.563 77.7666C161.124 77.585 160.724 77.3184 160.388 76.9821C160.052 76.6457 159.785 76.2462 159.603 75.8066C159.422 75.3669 159.329 74.8957 159.33 74.42V52.93L151.64 68.93C151.342 69.6066 150.855 70.1827 150.238 70.589C149.62 70.9953 148.898 71.2144 148.159 71.22C147.42 71.2266 146.695 71.0196 146.071 70.624C145.446 70.2284 144.95 69.661 144.64 68.99L136.95 52.93V74.48C136.907 75.3963 136.512 76.2607 135.848 76.8938C135.184 77.5269 134.302 77.8801 133.385 77.8801C132.468 77.8801 131.586 77.5269 130.922 76.8938C130.258 76.2607 129.863 75.3963 129.82 74.48V39.41C129.814 38.928 129.905 38.4497 130.089 38.0041C130.273 37.5584 130.545 37.1546 130.889 36.817C131.233 36.4788 131.641 36.2135 132.09 36.0371C132.538 35.8606 133.018 35.7765 133.5 35.79C134.297 35.7116 135.098 35.8945 135.781 36.3112C136.465 36.728 136.995 37.3558 137.29 38.1L148.21 60.34L159.21 37.88C159.596 37.1261 160.219 36.5201 160.984 36.1551C161.748 35.7901 162.611 35.6864 163.44 35.86C164.269 36.0337 165.018 36.4755 165.571 37.1171C166.124 37.7587 166.45 38.5644 166.5 39.41V74.41C166.509 74.8826 166.424 75.3523 166.25 75.7918C166.076 76.2312 165.816 76.6317 165.486 76.97C165.155 77.3073 164.761 77.5756 164.325 77.7592C163.89 77.9429 163.422 78.0383 162.95 78.04ZM177.31 44.04C176.669 44.0359 176.038 43.8896 175.46 43.6117C174.883 43.3338 174.375 42.9312 173.972 42.4329C173.569 41.9346 173.282 41.3532 173.131 40.7305C172.98 40.1077 172.97 39.4593 173.1 38.832C173.318 37.7788 173.92 36.8443 174.789 36.2106C175.658 35.5769 176.732 35.2894 177.801 35.4039C178.871 35.5185 179.859 36.027 180.574 36.8303C181.29 37.6337 181.68 38.6745 181.67 39.75C181.669 40.3189 181.555 40.8819 181.334 41.4064C181.114 41.9309 180.791 42.4065 180.386 42.8055C179.98 43.2045 179.5 43.5191 178.972 43.731C178.444 43.9429 177.879 44.0479 177.31 44.04ZM177.31 77.87C176.308 77.8601 175.35 77.4576 174.641 76.749C173.932 76.0404 173.53 75.0821 173.52 74.08V51.62C173.521 50.8649 173.746 50.1271 174.166 49.4996C174.585 48.8721 175.182 48.383 175.879 48.094C176.577 47.8051 177.345 47.7292 178.085 47.8761C178.826 48.0229 179.506 48.3858 180.041 48.919C180.396 49.2736 180.677 49.6947 180.869 50.1581C181.061 50.6216 181.16 51.1184 181.16 51.62V74.08C181.157 74.5819 181.055 75.0782 180.86 75.5406C180.665 76.0031 180.38 76.4225 180.023 76.775C179.665 77.1269 179.241 77.4048 178.776 77.5927C178.31 77.7806 177.812 77.8748 177.31 77.87ZM193.88 77.87C192.589 77.8587 191.338 77.423 190.32 76.63C189.319 75.8405 188.523 74.8209 188.001 73.6579C187.479 72.4948 187.245 71.2228 187.32 69.95V40.37C187.32 39.3489 187.726 38.3697 188.448 37.6476C189.17 36.9256 190.149 36.52 191.17 36.52C192.191 36.52 193.17 36.9256 193.892 37.6476C194.614 38.3697 195.02 39.3489 195.02 40.37V69.37C194.967 69.9992 195.093 70.6305 195.383 71.1913C195.673 71.752 196.116 72.2195 196.66 72.54C196.996 72.8127 197.267 73.1573 197.452 73.5485C197.637 73.9396 197.732 74.3673 197.73 74.8C197.76 76.97 196.09 77.87 193.88 77.87ZM205.87 44.04C205.229 44.0359 204.598 43.8896 204.02 43.6117C203.443 43.3338 202.935 42.9312 202.532 42.4329C202.129 41.9346 201.842 41.3532 201.691 40.7305C201.54 40.1077 201.53 39.4593 201.66 38.832C201.878 37.7788 202.48 36.8443 203.349 36.2106C204.218 35.5769 205.292 35.2894 206.361 35.4039C207.431 35.5185 208.419 36.027 209.134 36.8303C209.85 37.6337 210.24 38.6745 210.23 39.75C210.23 40.3193 210.117 40.8829 209.897 41.408C209.677 41.9331 209.355 42.4092 208.949 42.8085C208.543 43.2078 208.062 43.5223 207.533 43.7338C207.005 43.9452 206.439 44.0493 205.87 44.04ZM205.87 77.87C204.868 77.8601 203.91 77.4576 203.201 76.749C202.492 76.0404 202.09 75.0821 202.08 74.08V51.62C202.081 50.8649 202.306 50.1271 202.726 49.4996C203.145 48.8721 203.742 48.383 204.439 48.094C205.137 47.8051 205.905 47.7292 206.645 47.8761C207.386 48.0229 208.066 48.3858 208.601 48.919C208.956 49.2736 209.237 49.6947 209.429 50.1581C209.621 50.6216 209.72 51.1184 209.72 51.62V74.08C209.718 74.582 209.616 75.0787 209.421 75.5412C209.226 76.0038 208.941 76.4231 208.583 76.775C208.225 77.1269 207.801 77.4048 207.336 77.5927C206.87 77.7806 206.372 77.8748 205.87 77.87ZM237.89 62.43C237.902 62.7799 237.844 63.1286 237.719 63.4556C237.594 63.7827 237.405 64.0813 237.162 64.3339C236.92 64.5865 236.629 64.788 236.308 64.9265C235.986 65.0649 235.64 65.1375 235.29 65.14H221.76V66.27C221.76 69.67 223.28 71.76 226.57 71.76C228.023 71.774 229.47 71.565 230.86 71.14C231.817 70.6548 232.854 70.3465 233.92 70.23C234.492 70.2138 235.054 70.3832 235.522 70.7129C235.991 71.0425 236.339 71.5147 236.517 72.059C236.635 72.42 236.673 72.803 236.63 73.18C236.63 74.82 235.22 75.95 233.35 76.74C230.996 77.5046 228.535 77.8861 226.06 77.87C217.23 77.87 214.12 72.1 214.12 65.48V60.22C214.12 53.6 217.8 47.78 226.06 47.78C234.6 47.78 237.88 53.43 237.88 60.11L237.89 62.43ZM226.24 53.72C223.24 53.72 221.77 55.58 221.77 58.72V59.46H230.53V58.72C230.53 55.53 229.29 53.72 226.24 53.72ZM264.81 77.87C263.797 77.871 262.802 77.6054 261.924 77.0999C261.046 76.5943 260.317 75.8667 259.81 74.99C257.497 76.996 254.497 78.0282 251.44 77.87C244.65 77.87 241.94 73.57 241.94 67.29V51.62C241.94 50.6103 242.338 49.6414 243.048 48.9228C243.757 48.2042 244.72 47.7937 245.73 47.78C246.746 47.7901 247.718 48.1976 248.438 48.9153C249.157 49.633 249.567 50.6038 249.58 51.62V66.33C249.58 68.93 250.25 70.74 253.58 70.74C254.503 70.7611 255.416 70.5495 256.236 70.1249C257.055 69.7002 257.755 69.0761 258.27 68.31V51.62C258.281 50.6033 258.691 49.6316 259.411 48.9136C260.131 48.1956 261.103 47.7886 262.12 47.78C263.13 47.7929 264.094 48.2032 264.803 48.922C265.513 49.6407 265.91 50.6101 265.91 51.62V69.33C265.868 69.9635 266.003 70.5962 266.302 71.1564C266.601 71.7167 267.05 72.1821 267.6 72.5C267.939 72.7709 268.212 73.1149 268.399 73.5062C268.586 73.8976 268.682 74.3262 268.68 74.76C268.66 76.97 267.02 77.87 264.81 77.87Z" fill="white"/>
<path d="M286.03 77.53H278.03C277.664 77.5315 277.305 77.4239 277 77.2209C276.695 77.0178 276.458 76.7286 276.318 76.39C276.226 76.1647 276.179 75.9234 276.18 75.68V49.36C276.185 48.8709 276.381 48.4032 276.727 48.0573C277.073 47.7114 277.541 47.5149 278.03 47.51H286.03C295.21 47.51 296.61 54.18 296.61 58.71V66.37C296.61 70.86 295.21 77.53 286.03 77.53ZM292.91 58.75C292.91 54.88 291.8 51.05 285.82 51.05H279.82V74.05H285.82C291.82 74.05 292.91 70.18 292.91 66.35V58.75ZM319.4 77.9C318.978 77.9072 318.567 77.7674 318.237 77.5047C317.906 77.242 317.678 76.8727 317.59 76.46C317.1 74.46 316.59 72.46 315.99 70.53H304.21C303.67 72.47 303.14 74.53 302.6 76.46C302.525 76.8641 302.311 77.2293 301.995 77.4922C301.679 77.7552 301.281 77.8995 300.87 77.9C300.591 77.9088 300.313 77.8517 300.06 77.7333C299.807 77.6149 299.585 77.4385 299.412 77.2184C299.24 76.9983 299.122 76.7408 299.068 76.4665C299.013 76.1923 299.024 75.9091 299.1 75.64C301.353 66.6186 304.247 57.7694 307.76 49.16C308.46 47.47 309.29 47.16 310.11 47.16C310.93 47.16 311.8 47.49 312.54 49.16C316.059 57.7625 318.959 66.6049 321.22 75.62C321.299 75.8945 321.311 76.1841 321.255 76.4642C321.199 76.7444 321.077 77.007 320.898 77.23C320.72 77.4532 320.491 77.6304 320.23 77.747C319.97 77.8636 319.685 77.916 319.4 77.9ZM310.1 53.11C308.29 57.68 306.64 62.29 305.16 67.11H315.04C313.56 62.29 311.91 57.68 310.1 53.11ZM340.57 51.09H332.76V76.09C332.761 76.4563 332.653 76.8145 332.449 77.1192C332.246 77.424 331.957 77.6616 331.619 77.802C331.337 77.9157 331.031 77.9589 330.729 77.9278C330.426 77.8968 330.136 77.7924 329.883 77.6237C329.63 77.4551 329.422 77.2272 329.276 76.96C329.131 76.6927 329.054 76.3941 329.05 76.09V51.09H321.27C320.919 51.0936 320.574 50.9917 320.282 50.7973C319.989 50.603 319.762 50.3252 319.629 50C319.541 49.7842 319.497 49.553 319.5 49.32C319.497 49.0848 319.54 48.8513 319.628 48.6328C319.715 48.4144 319.844 48.2154 320.009 48.0472C320.173 47.879 320.369 47.745 320.586 47.6528C320.802 47.5606 321.035 47.5121 321.27 47.51H340.54C341.02 47.5121 341.481 47.7031 341.821 48.0418C342.162 48.3805 342.355 48.8397 342.36 49.32C342.351 49.7902 342.159 50.2384 341.825 50.5691C341.491 50.8998 341.04 51.0867 340.57 51.09ZM360.67 77.9C360.248 77.9072 359.837 77.7674 359.507 77.5047C359.176 77.242 358.948 76.8727 358.86 76.46C358.36 74.46 357.86 72.46 357.25 70.53H345.47C344.94 72.47 344.4 74.53 343.87 76.46C343.828 76.7009 343.736 76.9305 343.602 77.1348C343.467 77.3391 343.292 77.5137 343.088 77.648C342.78 77.8499 342.417 77.9527 342.049 77.9427C341.681 77.9326 341.325 77.8103 341.028 77.592C340.733 77.3722 340.512 77.0676 340.394 76.7188C340.276 76.37 340.268 75.9937 340.37 75.64C342.629 66.6166 345.533 57.7672 349.06 49.16C349.76 47.47 350.58 47.16 351.4 47.16C352.22 47.16 353.09 47.49 353.83 49.16C357.338 57.7633 360.229 66.6057 362.48 75.62C362.597 76.033 362.562 76.474 362.381 76.8634C362.201 77.2528 361.887 77.5648 361.497 77.743C361.238 77.8603 360.954 77.9142 360.67 77.9ZM351.36 53.11C349.55 57.68 347.9 62.29 346.42 67.11H356.3C354.82 62.29 353.17 57.68 351.36 53.11ZM377.43 77.53H368.37C368.004 77.5315 367.645 77.4239 367.34 77.2209C367.035 77.0178 366.798 76.7286 366.658 76.39C366.566 76.1647 366.519 75.9234 366.52 75.68V49.36C366.525 48.8709 366.721 48.4032 367.067 48.0573C367.413 47.7114 367.881 47.5149 368.37 47.51H376.57C382.91 47.51 385.38 50.93 385.38 54.88V56.12C385.46 57.4076 385.123 58.6866 384.419 59.7675C383.714 60.8483 382.68 61.6733 381.47 62.12C382.95 62.483 384.264 63.3354 385.199 64.5388C386.133 65.7423 386.634 67.2262 386.62 68.75V69.86C386.62 74.28 384.27 77.53 377.43 77.53ZM381.68 55.29C381.68 52.82 380.23 51.01 376.53 51.01H370.23V60.73H374.76C378.92 60.73 381.76 59.73 381.76 56.49L381.68 55.29ZM382.95 68.51C382.95 65.71 380.65 64.06 376.78 64.06H370.23V74.06H377.39C381.72 74.06 382.95 72.13 382.95 69.49V68.51ZM410.01 77.9C409.588 77.9072 409.177 77.7674 408.847 77.5047C408.516 77.242 408.288 76.8727 408.2 76.46C407.71 74.46 407.2 72.46 406.59 70.53H394.82C394.28 72.47 393.75 74.53 393.21 76.46C393.19 76.7201 393.114 76.9727 392.986 77.2003C392.859 77.4279 392.684 77.6252 392.473 77.7784C392.262 77.9315 392.02 78.037 391.764 78.0873C391.508 78.1377 391.244 78.1319 390.991 78.0702C390.737 78.0085 390.5 77.8924 390.296 77.73C390.092 77.5676 389.926 77.3628 389.809 77.1297C389.692 76.8966 389.627 76.6409 389.618 76.3802C389.61 76.1195 389.658 75.8601 389.76 75.62C392.023 66.5978 394.927 57.7487 398.45 49.14C399.15 47.45 399.97 47.14 400.8 47.14C401.63 47.14 402.49 47.47 403.23 49.14C406.718 57.7526 409.592 66.6014 411.83 75.62C411.906 75.8943 411.916 76.1827 411.858 76.4615C411.801 76.7404 411.679 77.0017 411.501 77.2241C411.324 77.4465 411.096 77.6238 410.837 77.7412C410.578 77.8587 410.294 77.9131 410.01 77.9ZM400.76 53.11C398.94 57.68 397.3 62.29 395.81 67.11H405.7C404.16 62.29 402.52 57.68 400.76 53.11ZM423.61 77.9C420.911 78.0079 418.218 77.5585 415.7 76.58C415.348 76.4603 415.042 76.2326 414.827 75.9292C414.611 75.6257 414.497 75.2621 414.5 74.89C414.492 74.6654 414.528 74.4413 414.606 74.2307C414.685 74.0201 414.804 73.8272 414.958 73.663C415.111 73.4982 415.295 73.3654 415.5 73.2722C415.704 73.179 415.925 73.1272 416.15 73.12C416.89 73.12 417.55 73.74 419.65 74.12C420.856 74.3799 422.087 74.504 423.32 74.49C428.32 74.49 430.61 72.23 430.61 68.98C430.61 66.46 429.33 65.35 426.61 64.57C424.43 63.83 420.56 63.5 418.29 62.39C416.02 61.28 414.59 59.46 414.59 55.96C414.59 50.36 418.79 47.11 424.26 47.11C426.607 47.0334 428.946 47.4243 431.14 48.26C431.434 48.3612 431.696 48.5377 431.901 48.7721C432.105 49.0064 432.244 49.2903 432.305 49.5953C432.365 49.9003 432.344 50.2158 432.244 50.5102C432.144 50.8046 431.968 51.0677 431.735 51.273C431.424 51.5488 431.026 51.7069 430.61 51.72C429.99 51.72 429.33 51.18 427.56 50.81C426.543 50.6053 425.507 50.5081 424.47 50.52C420.6 50.52 418.29 52.52 418.29 55.63C418.29 58.27 419.78 59.26 422.37 59.96C425.13 60.74 429.12 60.96 431.37 62.51C433.3 63.79 434.37 65.72 434.37 68.65C434.31 74.62 430.03 77.9 423.61 77.9ZM454.91 77.53H440.58C440.228 77.5345 439.883 77.4331 439.589 77.2389C439.295 77.0447 439.067 76.7667 438.933 76.441C438.844 76.225 438.799 75.9936 438.8 75.76V49.28C438.805 48.8105 438.995 48.3618 439.328 48.0307C439.661 47.6996 440.11 47.5126 440.58 47.51H454.29C454.763 47.5099 455.218 47.6951 455.556 48.0259C455.894 48.3568 456.09 48.8069 456.1 49.28C456.093 49.7544 455.9 50.207 455.562 50.54C455.394 50.7044 455.195 50.834 454.977 50.9216C454.758 51.0091 454.525 51.0527 454.29 51.05H442.51V60.81H453.22C453.562 60.8092 453.898 60.9101 454.183 61.1001C454.468 61.29 454.69 61.5604 454.821 61.8768C454.952 62.1932 454.986 62.5415 454.919 62.8773C454.851 63.2132 454.686 63.5214 454.443 63.763C454.282 63.9238 454.092 64.0513 453.882 64.1383C453.672 64.2253 453.447 64.27 453.22 64.27H442.51V73.99H454.91C455.142 73.9897 455.373 74.0353 455.588 74.1242C455.803 74.2131 455.998 74.3434 456.162 74.5078C456.327 74.6722 456.457 74.8675 456.546 75.0823C456.635 75.2972 456.68 75.5275 456.68 75.76C456.68 76.2294 456.493 76.6796 456.162 77.0116C455.83 77.3435 455.379 77.53 454.91 77.53Z" fill="white"/>
<path d="M17.39 15.91L25.9 20.85C33.49 14.135 43.1054 10.1474 53.22 9.52L55.76 0.01C41.3813 0.0807571 27.6043 5.78977 17.39 15.91Z" fill="white"/>
<path d="M95 16.05L90.08 24.54C96.9807 32.1714 101.097 41.9127 101.76 52.18L111.27 54.71C111.166 40.1801 105.317 26.2817 95 16.05Z" fill="white"/>
<path d="M94.76 15.8C84.4889 5.67944 70.6495 0.00433056 56.23 0L58.76 9.49C68.9285 10.0598 78.6119 14.0247 86.26 20.75L94.76 15.8Z" fill="white"/>
<path d="M17.06 16.23C6.90494 26.4416 1.16024 40.2289 1.06001 54.63L10.58 52.11C11.2203 41.9655 15.2369 32.3271 21.99 24.73L17.06 16.23Z" fill="white"/>
<path d="M86.63 89.13C78.8837 96.1029 68.9782 100.205 58.57 100.75L56.05 110.23H56.12C63.3646 110.238 70.5394 108.814 77.2323 106.041C83.9251 103.268 90.0041 99.1995 95.12 94.07L86.63 89.13Z" fill="white"/>
<path d="M101.76 57.45C101.238 67.8193 97.1873 77.6986 90.28 85.45L95.22 93.95C105.489 83.6345 111.243 69.6652 111.22 55.11V54.93L101.76 57.45Z" fill="white"/>
<path d="M53.38 100.73C43.0256 100.118 33.1901 95.9906 25.5 89.03L17.02 93.96C22.1128 99.0949 28.1683 103.175 34.8398 105.967C41.5113 108.759 48.6679 110.207 55.9 110.23L53.38 100.73Z" fill="white"/>
<path d="M21.76 85.26C14.9696 77.5573 10.9837 67.7846 10.45 57.53L0.970007 55.01V55.12C0.95346 69.5916 6.64949 83.4849 16.82 93.78L21.76 85.26Z" fill="white"/>
<path d="M91.01 65.5C92.7246 59.6986 92.9695 53.5619 91.7228 47.6423C90.4761 41.7227 87.7768 36.2061 83.8679 31.589C79.9591 26.972 74.9634 23.3995 69.3306 21.1932C63.6978 18.9869 57.6048 18.2161 51.6 18.95C50.9555 17.5731 49.8606 16.4572 48.4961 15.7867C47.1317 15.1162 45.5793 14.9312 44.0955 15.2622C42.6117 15.5932 41.2851 16.4205 40.3351 17.6074C39.385 18.7943 38.8682 20.2697 38.87 21.79C38.8726 22.1555 38.9061 22.5201 38.97 22.88C31.4521 26.8444 25.5427 33.2946 22.25 41.13C20.8167 41.2325 19.4546 41.7944 18.366 42.7323C17.2774 43.6703 16.5202 44.9343 16.2069 46.3367C15.8937 47.7391 16.041 49.2052 16.627 50.5172C17.213 51.8293 18.2065 52.9174 19.46 53.62V55.25C19.4558 62.9229 21.8686 70.4022 26.3557 76.6263C30.8429 82.8504 37.1765 87.503 44.4576 89.9237C51.7386 92.3445 59.5972 92.4103 66.9178 90.112C74.2384 87.8137 80.6491 83.268 85.24 77.12C86.6925 77.4424 88.2111 77.2706 89.5549 76.6319C90.8987 75.9933 91.9909 74.9242 92.6581 73.5943C93.3253 72.2645 93.5295 70.7499 93.2382 69.2908C92.9468 67.8318 92.1768 66.5117 91.05 65.54L91.01 65.5ZM87.76 55.21C87.7583 58.142 87.3511 61.0596 86.55 63.88H86.38C83.9432 57.7111 79.9377 52.2855 74.76 48.14C75.0977 47.3218 75.271 46.4451 75.27 45.56C75.2709 44.2157 74.8656 42.9025 74.1072 41.7926C73.3488 40.6826 72.2727 39.8277 71.02 39.34C70.95 38.42 70.85 37.5 70.7 36.55C70.0574 32.7578 68.9386 29.0619 67.37 25.55C73.3655 27.8577 78.5222 31.9261 82.1616 37.2201C85.801 42.5141 87.7527 48.7857 87.76 55.21ZM46.32 61.4C45.2757 61.4069 44.2478 61.6605 43.32 62.14C40.56 56.67 40.42 49.5 41.25 42.85C48.2035 41.3506 55.4512 42.0495 61.99 44.85V45.53C61.9893 46.6946 62.2936 47.8392 62.8725 48.8497C63.4515 49.8602 64.285 50.7016 65.29 51.29C63.5732 54.8385 60.9346 57.8605 57.65 60.04C55.6706 61.4094 53.5838 62.6166 51.41 63.65C50.7718 62.9275 49.9844 62.3521 49.1022 61.9637C48.2199 61.5752 47.2638 61.3829 46.3 61.4H46.32ZM62.23 24.05C64.4586 28.1838 65.9892 32.6574 66.76 37.29C66.85 37.89 66.93 38.48 66.99 39.06C65.6054 39.3916 64.3621 40.1551 63.44 41.24C56.6573 38.2765 49.1548 37.3656 41.86 38.62C42.514 35.16 43.37 31.74 44.42 28.38C44.796 28.452 45.177 28.49 45.56 28.49C47.0029 28.4868 48.4061 28.0179 49.561 27.153C50.716 26.2882 51.5608 25.0736 51.97 23.69C53.2967 23.5213 54.6326 23.4345 55.97 23.43C58.0655 23.4281 60.1559 23.6358 62.21 24.05H62.23ZM40.55 27.42C39.3125 31.3795 38.3469 35.4189 37.66 39.51C34.2333 40.4356 30.9146 41.7228 27.76 43.35C27.474 43.032 27.16 42.74 26.82 42.48C29.6332 36.0979 34.4544 30.8096 40.55 27.42ZM24.19 54.32C25.6834 53.998 27.0216 53.1746 27.9822 51.9866C28.9428 50.7987 29.4678 49.3177 29.47 47.79C29.4852 47.5336 29.4852 47.2764 29.47 47.02C31.9264 45.7612 34.4857 44.7141 37.12 43.89C36.39 51.19 36.87 59.02 40.39 65.07C40.0742 65.6994 39.8583 66.3742 39.75 67.07C35.1844 67.7235 30.5315 67.3824 26.11 66.07C24.8563 62.604 24.2167 58.9458 24.22 55.26C24.17 54.91 24.18 54.62 24.19 54.32ZM28.19 70.63C30.5401 71.0782 32.9275 71.3026 35.32 71.3C36.9917 71.2959 38.6615 71.189 40.32 70.98C41.0721 72.5599 42.4166 73.7797 44.062 74.3749C45.7074 74.9702 47.5212 74.893 49.11 74.16C55.583 78.7344 62.9683 81.8557 70.76 83.31C63.4127 87.1905 54.8367 88.0351 46.8736 85.6624C38.9104 83.2897 32.1952 77.889 28.17 70.62L28.19 70.63ZM75.76 80.08C71.99 79.63 61.25 77.84 52.12 71.43C52.7093 70.4119 53.0198 69.2564 53.02 68.08C53.0349 67.8169 53.0349 67.5531 53.02 67.29C55.4216 66.1523 57.7231 64.8143 59.9 63.29C64.0043 60.5558 67.236 56.6993 69.21 52.18C70.3 52.1043 71.3545 51.7608 72.28 51.18C75.5141 53.8166 78.2709 56.9894 80.43 60.56C81.3189 62.0504 82.0816 63.6125 82.71 65.23C81.3192 66.2825 80.3952 67.8372 80.1354 69.5619C79.8757 71.2867 80.3008 73.0446 81.32 74.46C79.7044 76.5545 77.837 78.442 75.76 80.08Z" fill="white"/>
<path d="M45.27 25.38C46.2699 25.38 47.2288 24.9828 47.9358 24.2758C48.6428 23.5688 49.04 22.6099 49.04 21.61C49.04 20.6101 48.6428 19.6512 47.9358 18.9442C47.2288 18.2372 46.2699 17.84 45.27 17.84C44.2701 17.84 43.3112 18.2372 42.6042 18.9442C41.8972 19.6512 41.5 20.6101 41.5 21.61C41.5 22.6099 41.8972 23.5688 42.6042 24.2758C43.3112 24.9828 44.2701 25.38 45.27 25.38Z" fill="white"/>
<path d="M46.15 71.72C47.1499 71.72 48.1088 71.3228 48.8158 70.6158C49.5228 69.9088 49.92 68.9499 49.92 67.95C49.92 66.9501 49.5228 65.9912 48.8158 65.2842C48.1088 64.5772 47.1499 64.18 46.15 64.18C45.1501 64.18 44.1912 64.5772 43.4842 65.2842C42.7772 65.9912 42.38 66.9501 42.38 67.95C42.38 68.9499 42.7772 69.9088 43.4842 70.6158C44.1912 71.3228 45.1501 71.72 46.15 71.72Z" fill="white"/>
<path d="M86.72 74.38C87.7199 74.38 88.6788 73.9828 89.3858 73.2758C90.0928 72.5688 90.49 71.6099 90.49 70.61C90.49 69.6101 90.0928 68.6512 89.3858 67.9442C88.6788 67.2372 87.7199 66.84 86.72 66.84C85.7201 66.84 84.7612 67.2372 84.0542 67.9442C83.3472 68.6512 82.95 69.6101 82.95 70.61C82.95 71.6099 83.3472 72.5688 84.0542 73.2758C84.7612 73.9828 85.7201 74.38 86.72 74.38Z" fill="white"/>
<path d="M22.65 51.54C23.6499 51.54 24.6088 51.1428 25.3158 50.4358C26.0228 49.7288 26.42 48.7699 26.42 47.77C26.42 46.7701 26.0228 45.8112 25.3158 45.1042C24.6088 44.3972 23.6499 44 22.65 44C21.6501 44 20.6912 44.3972 19.9842 45.1042C19.2772 45.8112 18.88 46.7701 18.88 47.77C18.88 48.7699 19.2772 49.7288 19.9842 50.4358C20.6912 51.1428 21.6501 51.54 22.65 51.54Z" fill="white"/>
<path d="M68.55 49.32C69.5499 49.32 70.5088 48.9228 71.2158 48.2158C71.9228 47.5088 72.32 46.5499 72.32 45.55C72.32 44.5501 71.9228 43.5912 71.2158 42.8842C70.5088 42.1772 69.5499 41.78 68.55 41.78C67.5501 41.78 66.5912 42.1772 65.8842 42.8842C65.1772 43.5912 64.78 44.5501 64.78 45.55C64.78 46.5499 65.1772 47.5088 65.8842 48.2158C66.5912 48.9228 67.5501 49.32 68.55 49.32Z" fill="white"/>
<path d="M138.76 99.46C138.547 99.4579 138.343 99.3716 138.193 99.2198C138.043 99.0681 137.959 98.8633 137.96 98.65V91.97L135.52 97.1C135.456 97.2505 135.348 97.3785 135.211 97.4675C135.074 97.5566 134.914 97.6027 134.75 97.6C134.585 97.5991 134.423 97.5517 134.283 97.4633C134.144 97.3749 134.032 97.249 133.96 97.1L131.54 91.97V98.67C131.54 98.8795 131.457 99.0805 131.309 99.2286C131.16 99.3768 130.96 99.46 130.75 99.46C130.54 99.46 130.34 99.3768 130.191 99.2286C130.043 99.0805 129.96 98.8795 129.96 98.67V88.96C129.96 88.8525 129.982 88.7461 130.024 88.6473C130.067 88.5484 130.128 88.459 130.206 88.3844C130.283 88.3098 130.375 88.2515 130.475 88.2129C130.575 88.1744 130.683 88.1564 130.79 88.16C130.965 88.1435 131.141 88.1843 131.29 88.2763C131.44 88.3683 131.556 88.5065 131.62 88.67L134.77 95.19L137.94 88.63C138.026 88.4642 138.164 88.331 138.332 88.2507C138.501 88.1703 138.691 88.1473 138.874 88.185C139.057 88.2225 139.223 88.3183 139.346 88.4581C139.47 88.5978 139.545 88.774 139.56 88.96V98.62C139.565 98.7826 139.522 98.9431 139.435 99.0808C139.349 99.2186 139.223 99.3273 139.074 99.393C138.975 99.436 138.868 99.4588 138.76 99.46ZM150.46 99.46C150.265 99.4621 150.075 99.3948 149.925 99.2703C149.775 99.1458 149.674 98.9721 149.64 98.78C149.49 98.14 149.31 97.5 149.14 96.9H145.21C145.03 97.5 144.86 98.14 144.71 98.78C144.677 98.9689 144.579 99.1402 144.433 99.2644C144.287 99.3886 144.102 99.4577 143.91 99.46C143.714 99.4646 143.523 99.4005 143.37 99.2788C143.217 99.1571 143.111 98.9856 143.071 98.794C143.045 98.667 143.048 98.5357 143.08 98.41C143.842 95.2252 144.845 92.1029 146.08 89.07C146.38 88.3 146.8 88.16 147.18 88.16C147.56 88.16 148 88.3 148.3 89.07C149.535 92.1029 150.538 95.2252 151.3 98.41C151.347 98.6004 151.327 98.8013 151.242 98.9782C151.157 99.1551 151.014 99.2972 150.836 99.38C150.718 99.435 150.59 99.4623 150.46 99.46ZM147.18 90.88C146.62 92.33 146.1 93.82 145.63 95.34H148.76C148.25 93.82 147.76 92.33 147.18 90.88ZM161.52 99.46C161.326 99.4629 161.137 99.3958 160.988 99.2709C160.84 99.1461 160.741 98.9718 160.71 98.78C160.56 98.14 160.38 97.5 160.21 96.9H156.28C156.1 97.5 155.93 98.14 155.78 98.78C155.766 98.8966 155.727 99.0088 155.667 99.1095C155.606 99.2103 155.525 99.2972 155.429 99.3647C155.333 99.4322 155.224 99.4789 155.109 99.5016C154.994 99.5243 154.875 99.5226 154.76 99.4966C154.646 99.4706 154.538 99.4209 154.444 99.3507C154.35 99.2804 154.271 99.1912 154.214 99.0888C154.156 98.9864 154.121 98.8731 154.11 98.7562C154.099 98.6393 154.113 98.5213 154.15 98.41C154.916 95.2263 155.919 92.1043 157.15 89.07C157.46 88.3 157.88 88.16 158.26 88.16C158.64 88.16 159.07 88.3 159.38 89.07C160.615 92.1029 161.618 95.2252 162.38 98.41C162.409 98.5377 162.408 98.6702 162.378 98.7977C162.348 98.9251 162.29 99.0439 162.207 99.1452C162.124 99.2465 162.019 99.3275 161.9 99.382C161.781 99.4366 161.651 99.4632 161.52 99.46ZM158.24 90.88C157.675 92.3483 157.161 93.8359 156.7 95.34H159.76C159.318 93.8322 158.81 92.3442 158.24 90.88ZM173.29 98.62C173.284 98.8507 173.187 99.0698 173.021 99.23C172.854 99.389 172.631 99.4753 172.4 99.47C172.243 99.4656 172.091 99.4173 171.96 99.3307C171.829 99.2441 171.725 99.1226 171.66 98.98C170.777 97.3587 169.813 95.7834 168.77 94.26L167.65 95.56V98.56C167.649 98.7298 167.599 98.8957 167.504 99.0368C167.41 99.1779 167.275 99.2879 167.118 99.3528C166.962 99.4178 166.789 99.435 166.622 99.4021C166.456 99.3692 166.302 99.2877 166.182 99.168C166.021 99.0067 165.93 98.788 165.93 98.56V89.02C165.931 88.8501 165.981 88.6843 166.076 88.5432C166.17 88.4021 166.305 88.2921 166.462 88.2272C166.618 88.1622 166.791 88.145 166.958 88.1779C167.124 88.2108 167.278 88.2923 167.398 88.412C167.559 88.573 167.65 88.792 167.65 89.02V93.27L171.51 88.48C171.585 88.379 171.683 88.2974 171.796 88.2418C171.909 88.1861 172.034 88.1581 172.16 88.16C172.272 88.1583 172.382 88.1793 172.486 88.2215C172.589 88.2638 172.683 88.3265 172.761 88.4059C172.84 88.4853 172.901 88.5797 172.942 88.6836C172.983 88.7874 173.003 88.8984 173 89.01C173 89.2099 172.925 89.4026 172.79 89.55L169.93 92.91C171.125 94.6062 172.217 96.3728 173.2 98.2C173.26 98.332 173.291 98.475 173.29 98.62ZM183.33 89.97H180.76V98.62C180.759 98.7898 180.709 98.9557 180.614 99.0968C180.52 99.2379 180.385 99.3478 180.228 99.4128C180.072 99.4778 179.899 99.495 179.732 99.4621C179.566 99.4292 179.412 99.3477 179.292 99.228C179.131 99.0667 179.04 98.848 179.04 98.62V90H176.45C176.244 89.9775 176.054 89.8798 175.916 89.7257C175.778 89.5716 175.702 89.3719 175.702 89.165C175.702 88.9581 175.778 88.7584 175.916 88.6043C176.054 88.4502 176.244 88.3525 176.45 88.33H183.35C183.557 88.3503 183.75 88.4471 183.89 88.6014C184.03 88.7558 184.107 88.9567 184.107 89.165C184.107 89.3734 184.03 89.5742 183.89 89.7286C183.75 89.8829 183.557 89.9797 183.35 90L183.33 89.97ZM199.76 90.38C199.52 90.38 199.38 90.22 199.01 90.02C198.638 89.8033 198.21 89.6991 197.78 89.72C196.24 89.72 195.5 90.72 195.5 92.98V94.62C195.5 96.95 196.21 97.84 197.7 97.84C198.194 97.8508 198.682 97.7263 199.11 97.48C199.316 97.316 199.56 97.206 199.82 97.16C199.916 97.1571 200.011 97.1741 200.1 97.21C200.189 97.2459 200.269 97.2999 200.336 97.3686C200.403 97.4373 200.454 97.5191 200.488 97.6089C200.521 97.6986 200.536 97.7944 200.53 97.89C200.516 98.051 200.465 98.2067 200.382 98.3453C200.299 98.4839 200.185 98.6018 200.05 98.69C199.361 99.17 198.54 99.425 197.7 99.42C194.85 99.42 193.77 97.48 193.77 94.64V92.9C193.77 90.16 194.86 88.12 197.77 88.12C198.578 88.1008 199.372 88.3351 200.04 88.79C200.18 88.87 200.299 88.9828 200.386 89.1186C200.473 89.2544 200.526 89.4093 200.54 89.57C200.547 89.6757 200.531 89.7817 200.495 89.8811C200.459 89.9806 200.402 90.0715 200.329 90.148C200.256 90.2244 200.167 90.2845 200.069 90.3244C199.971 90.3644 199.866 90.3833 199.76 90.38ZM205.27 99.46C205.156 99.4603 205.043 99.4379 204.938 99.3941C204.833 99.3504 204.738 99.2862 204.658 99.2052C204.578 99.1242 204.515 99.0281 204.472 98.9225C204.429 98.8169 204.408 98.7038 204.41 98.59V89.02C204.411 88.8501 204.461 88.6843 204.556 88.5432C204.65 88.4021 204.785 88.2921 204.942 88.2272C205.098 88.1622 205.271 88.145 205.438 88.1779C205.604 88.2108 205.758 88.2923 205.878 88.412C206.039 88.573 206.13 88.792 206.13 89.02V98.62C206.125 98.8448 206.033 99.0587 205.872 99.2158C205.711 99.3729 205.495 99.4606 205.27 99.46ZM217.11 99.46C216.945 99.4625 216.784 99.4138 216.647 99.3207C216.511 99.2276 216.407 99.0946 216.35 98.94C215.681 97.5667 214.936 96.2313 214.12 94.94H212.39V98.62C212.389 98.7898 212.339 98.9557 212.244 99.0968C212.15 99.2379 212.015 99.3478 211.858 99.4128C211.702 99.4778 211.529 99.495 211.362 99.4621C211.196 99.4292 211.042 99.3477 210.922 99.228C210.761 99.0667 210.67 98.848 210.67 98.62V89.19C210.67 88.962 210.761 88.7434 210.922 88.5822C211.083 88.421 211.302 88.3303 211.53 88.33H214.4C216.78 88.33 217.9 89.51 217.9 91.33V91.95C217.929 92.5615 217.745 93.1642 217.381 93.6561C217.016 94.148 216.493 94.4991 215.9 94.65C216.64 95.86 217.29 97.07 217.9 98.29C217.948 98.4193 217.965 98.5582 217.948 98.6952C217.931 98.8322 217.882 98.9631 217.804 99.077C217.727 99.1914 217.624 99.2858 217.503 99.3525C217.383 99.4191 217.248 99.4559 217.11 99.46ZM216.17 91.27C216.17 90.49 215.64 89.91 214.37 89.91H212.37V93.33H214.31C215.5 93.33 216.15 92.73 216.15 91.89L216.17 91.27ZM227.53 90.38C227.29 90.38 227.15 90.22 226.77 90.02C226.402 89.8019 225.977 89.6975 225.55 89.72C224 89.72 223.26 90.72 223.26 92.98V94.62C223.26 96.95 223.97 97.84 225.47 97.84C225.964 97.8508 226.452 97.7263 226.88 97.48C227.086 97.316 227.33 97.206 227.59 97.16C227.686 97.1571 227.781 97.1741 227.87 97.21C227.959 97.2459 228.039 97.2999 228.106 97.3686C228.173 97.4373 228.224 97.5191 228.258 97.6089C228.291 97.6986 228.306 97.7944 228.3 97.89C228.286 98.051 228.235 98.2067 228.152 98.3453C228.069 98.4839 227.955 98.6018 227.82 98.69C227.13 99.1682 226.31 99.423 225.47 99.42C222.61 99.42 221.54 97.48 221.54 94.64V92.9C221.54 90.16 222.63 88.12 225.54 88.12C226.348 88.1028 227.141 88.3369 227.81 88.79C227.948 88.8712 228.065 88.9845 228.15 89.1202C228.235 89.256 228.287 89.4102 228.3 89.57C228.311 89.7282 228.273 89.8859 228.19 90.0211C228.107 90.1563 227.984 90.2622 227.838 90.324C227.74 90.364 227.635 90.3831 227.53 90.38ZM235.76 99.46C235.253 99.5122 234.74 99.4529 234.258 99.2863C233.776 99.1196 233.337 98.8497 232.97 98.4954C232.603 98.141 232.318 97.7108 232.135 97.2349C231.952 96.759 231.875 96.2488 231.91 95.74V89.02C231.911 88.8501 231.961 88.6843 232.056 88.5432C232.15 88.4021 232.285 88.2921 232.442 88.2272C232.598 88.1622 232.771 88.145 232.938 88.1779C233.104 88.2108 233.258 88.2923 233.378 88.412C233.539 88.573 233.63 88.792 233.63 89.02V95.67C233.63 95.9511 233.685 96.2296 233.792 96.4894C233.9 96.7492 234.057 96.9853 234.256 97.1841C234.455 97.3829 234.691 97.5405 234.951 97.6479C235.21 97.7553 235.489 97.8104 235.77 97.81C236.051 97.8103 236.329 97.7551 236.589 97.6476C236.849 97.5402 237.085 97.3826 237.284 97.1838C237.483 96.985 237.64 96.749 237.748 96.4893C237.855 96.2295 237.91 95.9511 237.91 95.67V89.02C237.911 88.8501 237.961 88.6843 238.056 88.5432C238.15 88.4021 238.285 88.2921 238.442 88.2272C238.598 88.1622 238.771 88.145 238.938 88.1779C239.104 88.2108 239.258 88.2923 239.378 88.412C239.539 88.573 239.63 88.792 239.63 89.02V95.74C239.68 96.5091 239.475 97.2732 239.048 97.9147C238.621 98.5561 237.995 99.0394 237.266 99.29C236.782 99.4556 236.268 99.5136 235.76 99.46ZM249.83 99.32H244.76C244.543 99.32 244.334 99.2336 244.18 99.0798C244.026 98.926 243.94 98.7175 243.94 98.5V89.02C243.961 88.8049 244.061 88.6053 244.221 88.46C244.381 88.3148 244.589 88.2343 244.805 88.2343C245.021 88.2343 245.229 88.3148 245.389 88.46C245.549 88.6053 245.649 88.8049 245.67 89.02V97.67H249.81C249.972 97.6722 250.129 97.7215 250.263 97.8119C250.397 97.9023 250.501 98.0299 250.564 98.179C250.626 98.328 250.644 98.492 250.614 98.6509C250.584 98.8097 250.509 98.9564 250.397 99.073C250.247 99.2261 250.044 99.3147 249.83 99.32ZM260.2 99.46C260.006 99.4629 259.817 99.3958 259.668 99.2709C259.52 99.1461 259.421 98.9718 259.39 98.78C259.24 98.14 259.05 97.5 258.89 96.9H254.96C254.77 97.5 254.61 98.14 254.46 98.78C254.425 98.968 254.327 99.1383 254.181 99.2621C254.035 99.386 253.851 99.4559 253.66 99.46C253.53 99.4638 253.4 99.4373 253.282 99.3827C253.163 99.328 253.059 99.2467 252.977 99.145C252.896 99.043 252.839 98.9235 252.812 98.796C252.785 98.6684 252.787 98.5363 252.82 98.41C253.586 95.2263 254.589 92.1043 255.82 89.07C256.13 88.3 256.55 88.16 256.93 88.16C257.31 88.16 257.74 88.3 258.05 89.07C259.281 92.1043 260.284 95.2263 261.05 98.41C261.093 98.6013 261.069 98.8016 260.983 98.9777C260.897 99.1538 260.753 99.2954 260.576 99.379C260.458 99.4342 260.33 99.4619 260.2 99.46ZM256.92 90.88C256.355 92.3483 255.841 93.8359 255.38 95.34H258.46C258 93.82 257.48 92.33 256.92 90.88ZM265.47 99.46C265.297 99.4613 265.129 99.4111 264.985 99.3158C264.841 99.2205 264.729 99.0844 264.663 98.925C264.62 98.8186 264.599 98.7047 264.6 98.59V89.02C264.621 88.8049 264.721 88.6053 264.881 88.46C265.041 88.3148 265.249 88.2343 265.465 88.2343C265.681 88.2343 265.889 88.3148 266.049 88.46C266.209 88.6053 266.309 88.8049 266.33 89.02V98.62C266.325 98.8448 266.233 99.0587 266.072 99.2158C265.911 99.3729 265.695 99.4606 265.47 99.46ZM277.3 99.46C277.137 99.4603 276.978 99.4106 276.843 99.3176C276.709 99.2247 276.607 99.0929 276.55 98.94C275.881 97.5646 275.133 96.2291 274.31 94.94H272.59V98.62C272.602 98.7413 272.589 98.8639 272.552 98.9799C272.514 99.0959 272.453 99.2029 272.372 99.294C272.291 99.3855 272.191 99.4588 272.08 99.5088C271.968 99.5588 271.847 99.5844 271.725 99.584C271.541 99.5844 271.361 99.5261 271.212 99.4174C271.063 99.3088 270.953 99.1556 270.897 98.98C270.86 98.864 270.847 98.741 270.86 98.62V89.19C270.86 88.962 270.951 88.7434 271.112 88.5822C271.273 88.421 271.492 88.3303 271.72 88.33H274.6C276.97 88.33 278.09 89.51 278.09 91.33V91.95C278.119 92.5615 277.935 93.1642 277.571 93.6561C277.206 94.148 276.683 94.4991 276.09 94.65C276.83 95.86 277.48 97.07 278.09 98.29C278.138 98.4193 278.155 98.5582 278.138 98.6952C278.121 98.8322 278.072 98.9631 277.994 99.077C277.917 99.1914 277.814 99.2858 277.693 99.3525C277.573 99.4191 277.438 99.4559 277.3 99.46ZM276.37 91.27C276.37 90.49 275.84 89.91 274.57 89.91H272.57V93.33H274.5C275.7 93.33 276.35 92.73 276.35 91.89L276.37 91.27ZM293.39 99.32H290.1C289.987 99.3211 289.874 99.2996 289.769 99.2569C289.665 99.2141 289.569 99.151 289.489 99.071C289.408 98.9912 289.345 98.896 289.302 98.791C289.259 98.686 289.238 98.5734 289.24 98.46V89.16C289.239 89.0468 289.26 88.9345 289.303 88.8296C289.346 88.7248 289.409 88.6296 289.49 88.5495C289.57 88.4694 289.665 88.4061 289.77 88.3633C289.874 88.3204 289.987 88.2989 290.1 88.3H293.1C295.49 88.3 296.39 89.61 296.39 91.03V91.47C296.416 91.9344 296.294 92.3952 296.043 92.7865C295.791 93.1779 295.423 93.4801 294.99 93.65C295.523 93.7898 295.994 94.1041 296.327 94.5427C296.661 94.9814 296.838 95.519 296.83 96.07V96.49C296.76 98.08 295.9 99.32 293.39 99.32ZM294.62 91.26C294.62 90.47 294.12 89.9 293.02 89.9H290.96V93.03H292.5C293.73 93.03 294.62 92.7 294.62 91.67V91.26ZM295.06 95.95C295.06 95.1 294.36 94.56 293.2 94.56H290.96V97.73H293.36C294.65 97.73 295.06 97.11 295.06 96.28V95.95ZM304.6 99.47C301.71 99.47 300.74 97.47 300.74 95.37V92.24C300.74 90.19 301.74 88.16 304.6 88.16C307.46 88.16 308.47 90.16 308.47 92.24V95.37C308.47 97.43 307.49 99.47 304.6 99.47ZM306.75 92.24C306.75 90.82 306.25 89.73 304.6 89.73C302.95 89.73 302.47 90.81 302.47 92.24V95.37C302.47 96.81 302.97 97.9 304.6 97.9C306.23 97.9 306.75 96.81 306.75 95.37V92.24ZM316.41 99.46C315.902 99.5123 315.389 99.4532 314.907 99.2868C314.424 99.1203 313.984 98.8506 313.616 98.4964C313.249 98.1422 312.963 97.712 312.779 97.2359C312.594 96.7599 312.516 96.2493 312.55 95.74V89.02C312.55 88.792 312.641 88.5734 312.802 88.412C312.963 88.2511 313.182 88.1605 313.41 88.16C313.638 88.1625 313.857 88.2537 314.019 88.4141C314.181 88.5746 314.275 88.7918 314.28 89.02V95.67C314.28 95.9511 314.335 96.2296 314.442 96.4894C314.55 96.7492 314.707 96.9853 314.906 97.1841C315.105 97.3829 315.341 97.5405 315.601 97.6479C315.86 97.7553 316.139 97.8104 316.42 97.81C316.701 97.8103 316.98 97.7551 317.239 97.6476C317.499 97.5402 317.735 97.3826 317.934 97.1838C318.133 96.985 318.29 96.749 318.398 96.4893C318.505 96.2295 318.56 95.9511 318.56 95.67V89.02C318.561 88.8501 318.611 88.6843 318.706 88.5432C318.8 88.4021 318.935 88.2921 319.092 88.2272C319.248 88.1622 319.421 88.145 319.588 88.1779C319.754 88.2108 319.908 88.2923 320.028 88.412C320.189 88.573 320.28 88.792 320.28 89.02V95.74C320.33 96.5091 320.125 97.2732 319.698 97.9147C319.271 98.5561 318.645 99.0394 317.916 99.29C317.432 99.4556 316.918 99.5136 316.41 99.46ZM336.35 89.19C335.64 92.42 334.92 95.3 334.02 98.47C333.84 99.11 333.47 99.47 332.91 99.47C332.637 99.4572 332.377 99.3508 332.173 99.1687C331.969 98.9866 331.834 98.7399 331.79 98.47C331.14 96.14 330.56 93.88 330.02 91.56C329.47 93.88 328.88 96.14 328.23 98.47C328.194 98.7388 328.061 98.9853 327.857 99.1638C327.653 99.3423 327.391 99.4407 327.12 99.4407C326.849 99.4407 326.587 99.3423 326.383 99.1638C326.179 98.9853 326.046 98.7388 326.01 98.47C325.1 95.3 324.38 92.47 323.67 89.19C323.66 89.1137 323.66 89.0363 323.67 88.96C323.679 88.7401 323.774 88.5325 323.934 88.382C324.096 88.2323 324.31 88.1525 324.53 88.16C324.721 88.1575 324.907 88.2237 325.054 88.3466C325.201 88.4696 325.299 88.6411 325.33 88.83C325.89 91.47 326.5 93.97 327.21 96.6C327.89 94.07 328.49 91.6 329.01 89.17C329.13 88.6 329.45 88.17 330.01 88.17C330.57 88.17 330.9 88.59 331.01 89.17C331.54 91.61 332.13 94.07 332.81 96.6C333.54 93.97 334.14 91.47 334.7 88.83C334.728 88.6398 334.825 88.4666 334.973 88.3431C335.12 88.2196 335.308 88.1545 335.5 88.16C335.665 88.1515 335.828 88.1932 335.969 88.2794C336.11 88.3656 336.221 88.4923 336.288 88.643C336.333 88.743 336.357 88.85 336.36 88.96C336.366 89.0368 336.363 89.114 336.35 89.19ZM345.58 99.32H340.48C340.263 99.32 340.054 99.2336 339.9 99.0798C339.746 98.926 339.66 98.7175 339.66 98.5V89.13C339.659 88.9114 339.745 88.7015 339.899 88.546C340.053 88.3906 340.261 88.3021 340.48 88.3H345.36C345.523 88.2995 345.683 88.3482 345.819 88.4397C345.954 88.5311 346.059 88.6612 346.12 88.813C346.161 88.913 346.182 89.0202 346.181 89.1283C346.181 89.2364 346.159 89.3434 346.117 89.443C346.055 89.592 345.95 89.7189 345.815 89.8075C345.68 89.8961 345.521 89.9422 345.36 89.94H341.36V93.01H344.97C345.183 93.0121 345.387 93.0984 345.537 93.2502C345.687 93.4019 345.771 93.6067 345.77 93.82C345.769 93.9238 345.748 94.0265 345.707 94.1219C345.666 94.2174 345.607 94.3037 345.532 94.376C345.381 94.521 345.179 94.6014 344.97 94.6H341.36V97.67H345.55C345.658 97.6712 345.764 97.6936 345.863 97.736C345.962 97.7783 346.052 97.8398 346.127 97.9169C346.202 97.994 346.262 98.0852 346.302 98.1853C346.342 98.2853 346.361 98.3923 346.36 98.5C346.363 98.7116 346.283 98.916 346.138 99.0694C345.992 99.2227 345.791 99.3127 345.58 99.32ZM357.13 99.46C356.966 99.4702 356.802 99.4356 356.655 99.3599C356.509 99.2841 356.386 99.1701 356.3 99.03L351.85 91.73V98.67C351.851 98.8271 351.805 98.9808 351.718 99.1117C351.631 99.2426 351.507 99.3446 351.362 99.4047C351.217 99.4648 351.057 99.4803 350.904 99.4492C350.75 99.418 350.608 99.3417 350.498 99.23C350.348 99.082 350.262 98.8807 350.26 98.67V88.95C350.26 88.8411 350.283 88.7335 350.326 88.6336C350.37 88.5337 350.433 88.4437 350.512 88.369C350.592 88.2948 350.686 88.2379 350.789 88.2019C350.892 88.166 351.001 88.1517 351.11 88.16C351.278 88.1577 351.444 88.1977 351.593 88.2764C351.741 88.355 351.867 88.4697 351.96 88.61L356.39 95.9V88.95C356.39 88.7942 356.437 88.6419 356.523 88.5123C356.61 88.3828 356.733 88.2817 356.877 88.2218C357.02 88.162 357.179 88.146 357.332 88.1759C357.485 88.2058 357.625 88.2803 357.736 88.39C357.887 88.5377 357.975 88.7386 357.98 88.95V98.67C357.973 98.8879 357.88 99.0942 357.722 99.244C357.642 99.3171 357.549 99.3738 357.447 99.4109C357.346 99.448 357.238 99.4646 357.13 99.46ZM378.59 99.46C378.48 99.4611 378.371 99.44 378.269 99.3981C378.167 99.3561 378.075 99.2941 377.997 99.2158C377.92 99.1374 377.859 99.0443 377.818 98.942C377.777 98.8396 377.758 98.7301 377.76 98.62V91.94L375.33 97.07C375.266 97.2208 375.159 97.3491 375.022 97.4382C374.884 97.5273 374.724 97.5733 374.56 97.57C374.395 97.5691 374.233 97.5217 374.093 97.4333C373.954 97.3449 373.842 97.219 373.77 97.07L371.35 91.94V98.64C371.35 98.8495 371.267 99.0505 371.119 99.1986C370.97 99.3468 370.77 99.43 370.56 99.43C370.35 99.43 370.15 99.3468 370.001 99.1986C369.853 99.0505 369.77 98.8495 369.77 98.64V88.93C369.77 88.8225 369.792 88.7161 369.834 88.6173C369.877 88.5184 369.938 88.429 370.016 88.3544C370.093 88.2798 370.185 88.2215 370.285 88.1829C370.385 88.1444 370.493 88.1264 370.6 88.13C370.775 88.1135 370.951 88.1543 371.1 88.2463C371.25 88.3383 371.366 88.4765 371.43 88.64L374.57 95.16L377.76 88.62C377.846 88.4542 377.984 88.321 378.152 88.2407C378.321 88.1603 378.511 88.1373 378.694 88.175C378.877 88.2125 379.043 88.3083 379.166 88.4481C379.29 88.5878 379.365 88.764 379.38 88.95V98.62C379.385 98.8358 379.305 99.0451 379.158 99.2023C379.01 99.3596 378.806 99.4522 378.59 99.46ZM389.84 99.32H384.76C384.543 99.32 384.334 99.2336 384.18 99.0798C384.026 98.926 383.94 98.7175 383.94 98.5V89.13C383.939 88.9114 384.025 88.7015 384.179 88.546C384.333 88.3906 384.541 88.3021 384.76 88.3H389.64C389.804 88.2995 389.963 88.3482 390.099 88.4397C390.234 88.5311 390.339 88.6612 390.4 88.813C390.441 88.913 390.462 89.0202 390.461 89.1283C390.461 89.2364 390.439 89.3434 390.397 89.443C390.335 89.592 390.23 89.7189 390.095 89.8075C389.96 89.8961 389.801 89.9422 389.64 89.94H385.64V93.01H389.25C389.463 93.0121 389.667 93.0984 389.817 93.2502C389.967 93.4019 390.051 93.6067 390.05 93.82C390.049 93.9238 390.028 94.0265 389.987 94.1219C389.946 94.2174 389.887 94.3037 389.812 94.376C389.661 94.521 389.459 94.6014 389.25 94.6H385.64V97.67H389.83C389.938 97.6712 390.044 97.6936 390.143 97.736C390.242 97.7783 390.332 97.8398 390.407 97.9169C390.482 97.994 390.542 98.0852 390.582 98.1853C390.622 98.2853 390.641 98.3923 390.64 98.5C390.642 98.6603 390.597 98.8176 390.51 98.9519C390.422 99.0862 390.297 99.1914 390.149 99.254C390.051 99.296 389.946 99.3184 389.84 99.32ZM400.43 99.32H395.34C395.232 99.3213 395.125 99.301 395.025 99.2603C394.925 99.2196 394.834 99.1592 394.757 99.0828C394.681 99.0064 394.62 98.9155 394.58 98.8154C394.539 98.7153 394.519 98.6081 394.52 98.5V89.13C394.518 88.9664 394.564 88.8058 394.654 88.669C394.744 88.5323 394.873 88.4257 395.024 88.363C395.124 88.3212 395.232 88.2998 395.34 88.3H400.22C400.384 88.2995 400.543 88.3482 400.679 88.4397C400.814 88.5311 400.919 88.6612 400.98 88.813C401.021 88.913 401.042 89.0202 401.041 89.1283C401.041 89.2364 401.019 89.3434 400.977 89.443C400.915 89.592 400.81 89.719 400.675 89.8078C400.54 89.8965 400.381 89.9429 400.22 89.941H396.22V93.01H399.83C400.043 93.0121 400.247 93.0984 400.397 93.2502C400.547 93.4019 400.631 93.6067 400.63 93.82C400.629 93.9238 400.608 94.0265 400.567 94.1219C400.526 94.2174 400.467 94.3037 400.392 94.376C400.241 94.521 400.039 94.6014 399.83 94.6H396.22V97.67H400.4C400.618 97.6724 400.827 97.7609 400.981 97.9163C401.134 98.0717 401.22 98.2815 401.22 98.5C401.223 98.7132 401.142 98.919 400.994 99.0725C400.846 99.2261 400.643 99.315 400.43 99.32ZM411.81 89.97H409.22V98.62C409.221 98.7338 409.2 98.8467 409.157 98.9522C409.115 99.0577 409.052 99.1537 408.972 99.2346C408.892 99.3155 408.796 99.3797 408.691 99.4236C408.586 99.4674 408.474 99.49 408.36 99.49C408.246 99.4911 408.133 99.4693 408.027 99.4258C407.922 99.3824 407.826 99.3181 407.746 99.237C407.666 99.1559 407.603 99.0594 407.56 98.9534C407.518 98.8475 407.498 98.7341 407.5 98.62V90H404.91C404.704 89.9775 404.514 89.8798 404.376 89.7257C404.238 89.5716 404.162 89.3719 404.162 89.165C404.162 88.9581 404.238 88.7584 404.376 88.6043C404.514 88.4502 404.704 88.3525 404.91 88.33H411.81C412.017 88.3503 412.21 88.4471 412.35 88.6014C412.49 88.7558 412.567 88.9567 412.567 89.165C412.567 89.3734 412.49 89.5742 412.35 89.7286C412.21 89.8829 412.017 89.9797 411.81 90V89.97ZM419.97 99.32H416.67C416.557 99.3211 416.444 99.2996 416.339 99.2569C416.235 99.2141 416.139 99.151 416.059 99.071C415.978 98.9912 415.915 98.896 415.872 98.791C415.829 98.686 415.808 98.5734 415.81 98.46V89.16C415.81 88.932 415.901 88.7134 416.062 88.552C416.223 88.3911 416.442 88.3005 416.67 88.3H419.62C422.01 88.3 422.92 89.61 422.92 91.03V91.47C422.947 91.9359 422.824 92.3983 422.571 92.7902C422.317 93.182 421.946 93.4832 421.51 93.65C422.044 93.7897 422.516 94.1036 422.851 94.542C423.186 94.9804 423.365 95.5182 423.36 96.07V96.49C423.36 98.08 422.48 99.32 419.97 99.32ZM421.2 91.26C421.2 90.47 420.7 89.9 419.59 89.9H417.54V93.03H419.08C420.3 93.03 421.2 92.7 421.2 91.67V91.26ZM421.63 95.95C421.63 95.1 420.94 94.56 419.77 94.56H417.54V97.73H419.94C421.23 97.73 421.63 97.11 421.63 96.28V95.95ZM433.82 99.46C433.625 99.4651 433.435 99.3987 433.286 99.2735C433.137 99.1482 433.039 98.9727 433.01 98.78C432.85 98.14 432.67 97.5 432.51 96.9H428.58C428.39 97.5 428.23 98.14 428.08 98.78C428.045 98.9698 427.945 99.1416 427.797 99.2657C427.65 99.3898 427.463 99.4585 427.27 99.46C427.074 99.4646 426.883 99.4005 426.73 99.2788C426.577 99.1571 426.471 98.9856 426.431 98.794C426.405 98.667 426.408 98.5357 426.44 98.41C427.202 95.2252 428.205 92.1029 429.44 89.07C429.75 88.3 430.17 88.16 430.55 88.16C430.93 88.16 431.36 88.3 431.67 89.07C432.901 92.1043 433.904 95.2263 434.67 98.41C434.701 98.5369 434.703 98.6694 434.674 98.797C434.646 98.9245 434.588 99.0437 434.505 99.145C434.422 99.2463 434.318 99.3273 434.199 99.3819C434.08 99.4365 433.951 99.4632 433.82 99.46ZM430.54 90.88C429.975 92.3483 429.461 93.8359 429 95.34H432.08C431.619 93.8359 431.105 92.3483 430.54 90.88ZM444.89 99.46C444.695 99.4629 444.505 99.3959 444.355 99.2713C444.204 99.1466 444.103 98.9724 444.07 98.78C443.92 98.14 443.74 97.5 443.58 96.9H439.64C439.46 97.5 439.3 98.14 439.14 98.78C439.109 98.97 439.012 99.1428 438.865 99.2674C438.719 99.392 438.532 99.4603 438.34 99.46C438.144 99.4646 437.953 99.4005 437.8 99.2788C437.647 99.1571 437.541 98.9856 437.501 98.794C437.475 98.667 437.478 98.5357 437.51 98.41C438.272 95.2252 439.275 92.1029 440.51 89.07C440.81 88.3 441.24 88.16 441.62 88.16C442 88.16 442.43 88.3 442.73 89.07C443.965 92.1029 444.968 95.2252 445.73 98.41C445.777 98.6004 445.757 98.8013 445.672 98.9782C445.587 99.1551 445.444 99.2972 445.266 99.38C445.148 99.435 445.02 99.4623 444.89 99.46ZM441.61 90.88C441.045 92.3483 440.531 93.8359 440.07 95.34H443.15C442.689 93.8359 442.175 92.3483 441.61 90.88ZM455.76 99.46C455.597 99.461 455.437 99.4116 455.303 99.3185C455.169 99.2255 455.066 99.0933 455.01 98.94C454.337 97.5665 453.59 96.2312 452.77 94.94H451.04V98.62C451.04 98.7898 450.989 98.9557 450.894 99.0968C450.8 99.2379 450.665 99.3478 450.508 99.4128C450.352 99.4778 450.179 99.495 450.012 99.4621C449.846 99.4292 449.692 99.3477 449.572 99.228C449.411 99.0667 449.32 98.848 449.32 98.62V89.19C449.321 88.962 449.411 88.7435 449.572 88.582C449.734 88.4211 449.952 88.3305 450.18 88.33H453.05C455.43 88.33 456.55 89.51 456.55 91.33V91.95C456.579 92.5615 456.395 93.1642 456.031 93.6561C455.666 94.148 455.143 94.4991 454.55 94.65C455.29 95.86 455.94 97.07 456.55 98.29C456.598 98.4193 456.615 98.5582 456.598 98.6952C456.581 98.8322 456.532 98.9631 456.454 99.077C456.377 99.1914 456.274 99.2858 456.153 99.3525C456.033 99.4191 455.898 99.4559 455.76 99.46ZM454.82 91.27C454.82 90.49 454.29 89.91 453.02 89.91H451.02V93.33H452.96C454.15 93.33 454.8 92.73 454.8 91.89L454.82 91.27Z" fill="white"/>
</svg>
