<svg width="1019" height="514" viewBox="0 0 1019 514" fill="none" xmlns="http://www.w3.org/2000/svg">
<path d="M407.54 505.31L550.14 0H653.35L510.75 505.31H407.54Z" fill="#535063"/>
<path d="M772.67 505.31L832.96 290.71H728.97L668.68 505.31H565.47L708.07 0H811.28L755.69 196.01H859.68L915.27 0H1018.47L875.87 505.31H772.67Z" fill="#535063"/>
<path d="M95.59 290.78C95.59 290.78 91.97 297.23 80.12 330.16H81.46C100.62 304.36 124.23 284.67 150.63 284.67C170.02 284.67 180.21 297.23 176.97 319.3C176.52 322.36 175.59 326.43 174.37 330.16H175.71C194.87 304.36 217.47 284.67 243.88 284.67C263.27 284.67 277.43 295.19 273.85 319.63C269.92 346.45 247.28 370.89 245.19 385.15C244.19 391.94 248.14 394.66 252.49 394.66C265.19 394.66 283.15 370.22 294.86 351.89L311.56 361.06C271.74 425.22 245.77 440.49 222.04 440.49C199.65 440.49 185.59 426.91 189.03 403.49C192.51 379.73 208.78 357.66 211.02 342.39C212.02 335.6 209.41 332.88 205.39 332.88C186 332.88 162.81 379.39 143.38 434.38H87.9C106.55 389.23 117.42 360.72 119.66 345.44C120.66 338.65 118.49 332.88 112.14 332.88C95.43 332.88 66.05 375.99 51.8 434.38H0C18.59 350.87 43.45 290.79 43.45 290.79H95.59V290.78Z" fill="#75A4A3"/>
<path d="M294.19 446.59C301.83 453.72 310.16 458.47 322.86 458.47C352.94 458.47 370.23 433.86 382.6 401.95C364.64 426.39 350.01 437.42 325.95 437.42C291.52 437.42 281.51 419.09 286.14 387.52C292.86 341.69 319.04 290.77 319.04 290.77H376.19C376.19 290.77 349.08 336.6 343.71 373.26C341.82 386.16 346.89 392.61 354.24 392.61C381.31 392.61 395.36 335.58 413.96 290.77H468.1C434.37 413.66 411.1 513.12 322.2 513.12C287.44 513.12 265.69 492.75 260.32 481.55L294.19 446.59Z" fill="#75A4A3"/>
</svg>
